<svg width="181" height="61" viewBox="0 0 181 61" fill="none" xmlns="http://www.w3.org/2000/svg">
<g clip-path="url(#clip0_152_283)">
<path fill-rule="evenodd" clip-rule="evenodd" d="M55.2125 20.3299V2.90137H0V20.3299H31.9652L5.81185 46.4728L18.1874 58.7929L37.777 38.4557V58.0918H55.2125V37.7585H38.4477L55.2125 20.3299Z" fill="white"/>
<path d="M10.8816 10.0337C10.8279 9.85976 10.7538 9.70407 10.6593 9.56664C10.5669 9.42707 10.4552 9.30789 10.3242 9.20909C10.1952 9.11033 10.047 9.03623 9.87946 8.98685C9.7119 8.93532 9.52929 8.90956 9.33166 8.90956C8.9772 8.90956 8.66141 8.99867 8.38427 9.17688C8.10716 9.35512 7.88911 9.6171 7.73012 9.96285C7.57332 10.3064 7.49492 10.7252 7.49492 11.2191C7.49492 11.7173 7.57332 12.1392 7.73012 12.485C7.88695 12.8307 8.10501 13.0937 8.38427 13.2741C8.66356 13.4524 8.98795 13.5415 9.35744 13.5415C9.69258 13.5415 9.98259 13.4771 10.2275 13.3482C10.4745 13.2194 10.6646 13.0368 10.7978 12.8006C10.931 12.5623 10.9976 12.2831 10.9976 11.9631L11.2683 12.005H9.47667V11.0709H12.1545V11.8633C12.1545 12.4281 12.0342 12.9166 11.7936 13.3289C11.5529 13.7412 11.2221 14.059 10.8011 14.2823C10.38 14.5035 9.89666 14.6141 9.35099 14.6141C8.74304 14.6141 8.20919 14.4778 7.74948 14.205C7.29188 13.9301 6.93422 13.5404 6.6764 13.0358C6.42077 12.529 6.29297 11.9277 6.29297 11.2319C6.29297 10.6994 6.36814 10.2238 6.51853 9.80501C6.67106 9.38626 6.88371 9.03086 7.15655 8.73881C7.42939 8.44462 7.74948 8.2213 8.11681 8.06883C8.48418 7.91424 8.88374 7.83691 9.31554 7.83691C9.68075 7.83691 10.0212 7.89059 10.3371 7.99798C10.6528 8.10319 10.9332 8.25352 11.1781 8.44892C11.4251 8.64435 11.6282 8.87627 11.7871 9.1447C11.9461 9.4131 12.0503 9.70944 12.0997 10.0337H10.8816ZM15.1457 14.6206C14.6623 14.6206 14.2434 14.5142 13.889 14.3017C13.5345 14.0891 13.2595 13.7916 13.0641 13.4094C12.8707 13.0272 12.774 12.5805 12.774 12.0694C12.774 11.5584 12.8707 11.1106 13.0641 10.7263C13.2595 10.3419 13.5345 10.0434 13.889 9.83077C14.2434 9.61817 14.6623 9.51189 15.1457 9.51189C15.6291 9.51189 16.048 9.61817 16.4024 9.83077C16.7569 10.0434 17.0308 10.3419 17.2241 10.7263C17.4196 11.1106 17.5174 11.5584 17.5174 12.0694C17.5174 12.5805 17.4196 13.0272 17.2241 13.4094C17.0308 13.7916 16.7569 14.0891 16.4024 14.3017C16.048 14.5142 15.6291 14.6206 15.1457 14.6206ZM15.1521 13.6864C15.4142 13.6864 15.6334 13.6145 15.8095 13.4706C15.9857 13.3246 16.1167 13.1292 16.2026 12.8844C16.2907 12.6396 16.3348 12.3669 16.3348 12.0662C16.3348 11.7634 16.2907 11.4897 16.2026 11.2448C16.1167 10.9979 15.9857 10.8014 15.8095 10.6554C15.6334 10.5094 15.4142 10.4363 15.1521 10.4363C14.8836 10.4363 14.6602 10.5094 14.4819 10.6554C14.3057 10.8014 14.1736 10.9979 14.0855 11.2448C13.9996 11.4897 13.9566 11.7634 13.9566 12.0662C13.9566 12.3669 13.9996 12.6396 14.0855 12.8844C14.1736 13.1292 14.3057 13.3246 14.4819 13.4706C14.6602 13.6145 14.8836 13.6864 15.1521 13.6864ZM21.511 9.21761V10.805H23.6434V11.8118H21.511V13.4899H23.9156V14.5239H20.2406V8.18357H23.9156V9.21761H21.511ZM26.894 13.3538L28.1645 9.49879H29.5164L27.6563 14.5239H26.1137L24.2625 9.49879H25.6237L26.894 13.3538ZM34.6311 11.9025C34.6311 12.0839 34.6189 12.2472 34.5948 12.3923H30.9197C30.9499 12.7551 31.0769 13.0393 31.3009 13.2449C31.5247 13.4505 31.7999 13.5533 32.1265 13.5533C32.5984 13.5533 32.9341 13.3508 33.1337 12.9456H34.5041C34.3588 13.4294 34.0805 13.8285 33.6693 14.143C33.2578 14.4513 32.7527 14.6055 32.1538 14.6055C31.6697 14.6055 31.2344 14.4997 30.847 14.2881C30.4661 14.0704 30.1665 13.765 29.9488 13.3719C29.737 12.9789 29.6312 12.5253 29.6312 12.0113C29.6312 11.4913 29.737 11.0347 29.9488 10.6417C30.1604 10.2486 30.4568 9.94629 30.838 9.73462C31.219 9.52298 31.6578 9.41716 32.1538 9.41716C32.6316 9.41716 33.0581 9.51996 33.4333 9.72556C33.8143 9.93116 34.1078 10.2245 34.3135 10.6054C34.5251 10.9803 34.6311 11.4127 34.6311 11.9025ZM33.3153 11.5397C33.3092 11.2131 33.1912 10.9531 32.9614 10.7596C32.7315 10.5601 32.4502 10.4603 32.1175 10.4603C31.8028 10.4603 31.5366 10.557 31.319 10.7505C31.1071 10.938 30.9772 11.201 30.9287 11.5397H33.3153ZM38.0717 9.42623C38.6706 9.42623 39.1548 9.61672 39.5238 9.99768C39.8929 10.3726 40.0774 10.8987 40.0774 11.576V14.5239H38.8069V11.7483C38.8069 11.3492 38.707 11.0438 38.5073 10.8322C38.3077 10.6145 38.0357 10.5056 37.6908 10.5056C37.34 10.5056 37.0616 10.6145 36.8559 10.8322C36.6563 11.0438 36.5566 11.3492 36.5566 11.7483V14.5239H35.2861V9.49879H36.5566V10.1247C36.726 9.90696 36.9407 9.73765 37.2008 9.61672C37.467 9.48972 37.7573 9.42623 38.0717 9.42623ZM42.4922 10.5419V12.9728C42.4922 13.1421 42.5315 13.2661 42.6102 13.3447C42.6948 13.4173 42.834 13.4536 43.0275 13.4536H43.6174V14.5239H42.8189C41.748 14.5239 41.2127 14.0039 41.2127 12.9638V10.5419H40.6138V9.49879H41.2127V8.25613H42.4922V9.49879H43.6174V10.5419H42.4922ZM46.1827 14.6055C45.7713 14.6055 45.4022 14.533 45.0756 14.3878C44.749 14.2367 44.4889 14.0341 44.2953 13.7801C44.1076 13.5262 44.0048 13.2449 43.9867 12.9365H45.2662C45.2903 13.1301 45.3842 13.2903 45.5475 13.4173C45.7169 13.5443 45.9256 13.6078 46.1734 13.6078C46.4155 13.6078 46.6032 13.5594 46.7363 13.4627C46.8752 13.3659 46.945 13.2419 46.945 13.0908C46.945 12.9275 46.8601 12.8066 46.6907 12.7279C46.5274 12.6433 46.2644 12.5526 45.9015 12.4558C45.5263 12.3651 45.2177 12.2714 44.9759 12.1746C44.74 12.0779 44.5342 11.9297 44.3587 11.7302C44.1893 11.5306 44.1047 11.2615 44.1047 10.9229C44.1047 10.6447 44.1832 10.3908 44.3407 10.161C44.504 9.93116 44.7339 9.74976 45.0303 9.61672C45.3328 9.48368 45.6867 9.41716 46.0918 9.41716C46.6907 9.41716 47.1687 9.56833 47.5256 9.87068C47.8824 10.167 48.0792 10.5691 48.1155 11.0771H46.8996C46.8813 10.8775 46.7968 10.7203 46.6454 10.6054C46.5004 10.4845 46.3036 10.424 46.0558 10.424C45.8256 10.424 45.6472 10.4663 45.5202 10.551C45.3993 10.6357 45.3389 10.7536 45.3389 10.9047C45.3389 11.0741 45.4234 11.2041 45.5928 11.2948C45.7623 11.3794 46.0252 11.4671 46.3824 11.5578C46.7453 11.6485 47.0446 11.7422 47.2806 11.839C47.5166 11.9358 47.7191 12.0869 47.8885 12.2925C48.064 12.4921 48.1547 12.7582 48.1608 13.0908C48.1608 13.381 48.0792 13.641 47.9158 13.8708C47.7586 14.1006 47.5288 14.282 47.2263 14.4151C46.9299 14.5421 46.582 14.6055 46.1827 14.6055Z" fill="#1B1B1B"/>
<path d="M46.5742 7.23418V6.87207H48.1341V7.23418H47.5744V8.71683H47.1348V7.23418H46.5742ZM48.1489 6.87207H48.7014L49.1698 8.01422H49.1916L49.66 6.87207H50.2124V8.71683H49.778V7.58365H49.7629L49.3194 8.70512H49.0419L48.5985 7.57735H48.5831V8.71683H48.1489V6.87207Z" fill="#1B1B1B"/>
<path d="M72.3119 7.50947C71.9865 6.91303 71.539 6.4589 70.9694 6.14713C70.3998 5.83536 69.7352 5.67947 68.9759 5.67947C68.1352 5.67947 67.3893 5.86923 66.7384 6.2488C66.0874 6.62837 65.5789 7.17057 65.2128 7.87547C64.8466 8.58037 64.6635 9.3937 64.6635 10.3155C64.6635 11.2644 64.8466 12.0912 65.2128 12.7961C65.5926 13.501 66.1145 14.0432 66.7791 14.4228C67.4436 14.8024 68.2166 14.9921 69.098 14.9921C70.1828 14.9921 71.0711 14.7075 71.7627 14.1381C72.4543 13.5552 72.9085 12.7487 73.1256 11.7185H68.2436V9.5428H75.9327V12.0235C75.743 13.013 75.3361 13.928 74.7122 14.7685C74.0883 15.6089 73.2816 16.2867 72.2916 16.8018C71.3152 17.3034 70.2168 17.5541 68.9963 17.5541C67.6267 17.5541 66.3859 17.2491 65.2738 16.6391C64.1753 16.0156 63.3073 15.1548 62.6701 14.0568C62.0462 12.9588 61.7344 11.7117 61.7344 10.3155C61.7344 8.91923 62.0462 7.67213 62.6701 6.57413C63.3073 5.46257 64.1753 4.6018 65.2738 3.9918C66.3859 3.36823 67.6197 3.05647 68.9759 3.05647C70.5762 3.05647 71.9661 3.44957 73.1459 4.2358C74.3257 5.00847 75.1394 6.0997 75.5869 7.50947H72.3119ZM83.2062 17.5745C81.8774 17.5745 80.6569 17.2627 79.5448 16.6391C78.433 16.0156 77.5513 15.1548 76.9004 14.0568C76.2495 12.9452 75.924 11.6914 75.924 10.2951C75.924 8.91247 76.2495 7.67213 76.9004 6.57413C77.5513 5.46257 78.433 4.59503 79.5448 3.97147C80.6569 3.3479 81.8774 3.03613 83.2062 3.03613C84.5488 3.03613 85.7693 3.3479 86.8677 3.97147C87.9798 4.59503 88.8545 5.46257 89.4917 6.57413C90.1427 7.67213 90.4681 8.91247 90.4681 10.2951C90.4681 11.6914 90.1427 12.9452 89.4917 14.0568C88.8545 15.1548 87.9798 16.0156 86.8677 16.6391C85.7559 17.2627 84.5354 17.5745 83.2062 17.5745ZM83.2062 15.0328C84.0606 15.0328 84.8132 14.843 85.4641 14.4635C86.1151 14.0704 86.6236 13.5146 86.9897 12.7961C87.3559 12.0777 87.539 11.244 87.539 10.2951C87.539 9.34623 87.3559 8.51936 86.9897 7.81447C86.6236 7.09603 86.1151 6.54703 85.4641 6.16747C84.8132 5.7879 84.0606 5.59813 83.2062 5.59813C82.3519 5.59813 81.5926 5.7879 80.928 6.16747C80.2771 6.54703 79.7685 7.09603 79.4024 7.81447C79.0362 8.51936 78.8532 9.34623 78.8532 10.2951C78.8532 11.244 79.0362 12.0777 79.4024 12.7961C79.7685 13.5146 80.2771 14.0704 80.928 14.4635C81.5926 14.843 82.3519 15.0328 83.2062 15.0328ZM61.7344 30.6488C61.7344 29.2525 62.0462 28.0055 62.6701 26.9075C63.3073 25.7959 64.1687 24.9351 65.2534 24.3251C66.3519 23.7016 67.5791 23.3898 68.9352 23.3898C70.5219 23.3898 71.9118 23.7965 73.1052 24.6098C74.2987 25.4231 75.1327 26.5482 75.6072 27.9851H72.3323C72.0068 27.3074 71.5456 26.799 70.9491 26.4601C70.3658 26.1212 69.6879 25.9518 68.9149 25.9518C68.0876 25.9518 67.3486 26.1484 66.6977 26.5415C66.0604 26.921 65.5586 27.4632 65.1924 28.1681C64.8399 28.873 64.6635 29.6998 64.6635 30.6488C64.6635 31.5841 64.8399 32.4111 65.1924 33.1295C65.5586 33.8345 66.0604 34.3835 66.6977 34.7765C67.3486 35.1561 68.0876 35.3458 68.9149 35.3458C69.6879 35.3458 70.3658 35.1765 70.9491 34.8375C71.5456 34.4851 72.0068 33.9698 72.3323 33.2921H75.6072C75.1327 34.7425 74.2987 35.8745 73.1052 36.6878C71.9254 37.4875 70.5355 37.8875 68.9352 37.8875C67.5791 37.8875 66.3519 37.5825 65.2534 36.9725C64.1687 36.3488 63.3073 35.4881 62.6701 34.3901C62.0462 33.2921 61.7344 32.0451 61.7344 30.6488ZM83.9385 37.7655L80.8059 32.2348H79.4634V37.7655H76.6156V23.5728H81.9451C83.0435 23.5728 83.9792 23.7694 84.7522 24.1625C85.5252 24.542 86.1017 25.0639 86.4812 25.7281C86.8747 26.3788 87.0711 27.1108 87.0711 27.9241C87.0711 28.8595 86.8 29.7068 86.2575 30.4658C85.7152 31.2115 84.9082 31.7265 83.8368 32.0111L87.2338 37.7655H83.9385ZM79.4634 30.0998H81.8434C82.6163 30.0998 83.1929 29.9168 83.5724 29.5508C83.9522 29.1711 84.1419 28.6494 84.1419 27.9851C84.1419 27.3345 83.9522 26.8329 83.5724 26.4805C83.1929 26.1145 82.6163 25.9315 81.8434 25.9315H79.4634V30.0998ZM91.0708 25.8705V29.4288H95.8511V31.6858H91.0708V35.4475H96.4613V37.7655H88.223V23.5525H96.4613V25.8705H91.0708ZM106.332 35.0611H100.677L99.7409 37.7655H96.7507L101.856 23.5525H105.172L110.278 37.7655H107.267L106.332 35.0611ZM105.559 32.7838L103.504 26.8465L101.45 32.7838H105.559ZM144.055 23.5728L138.848 37.7655H135.39L130.182 23.5728H133.233L137.139 34.8578L141.024 23.5728H144.055ZM147.186 25.8705V29.4288H151.966V31.6858H147.186V35.4475H152.577V37.7655H144.338V23.5525H152.577V25.8705H147.186ZM67.3283 58.2411C66.3382 58.2411 65.4432 58.0718 64.6432 57.7328C63.8566 57.3938 63.233 56.9058 62.7718 56.2688C62.3106 55.6318 62.0735 54.8795 62.0598 54.0118H65.1111C65.1517 54.5948 65.3552 55.0555 65.7213 55.3945C66.1011 55.7335 66.6163 55.9028 67.2672 55.9028C67.9318 55.9028 68.4537 55.7468 68.8335 55.4351C69.2133 55.1098 69.4031 54.6895 69.4031 54.1745C69.4031 53.7541 69.2744 53.4085 69.0166 53.1375C68.7589 52.8665 68.4334 52.6562 68.0402 52.5071C67.6604 52.3445 67.1315 52.1681 66.4536 51.9785C65.5315 51.7075 64.7789 51.4431 64.1957 51.1855C63.6261 50.9145 63.1312 50.5145 62.7108 49.9858C62.3039 49.4435 62.1005 48.7251 62.1005 47.8305C62.1005 46.9901 62.3106 46.2581 62.7311 45.6345C63.1516 45.0108 63.7415 44.5365 64.5008 44.2111C65.2601 43.8722 66.1281 43.7028 67.1045 43.7028C68.5691 43.7028 69.7556 44.0621 70.6643 44.7805C71.5863 45.4855 72.0949 46.4748 72.1899 47.7491H69.0573C69.0303 47.2611 68.8199 46.8611 68.4267 46.5495C68.0469 46.2241 67.5384 46.0615 66.9011 46.0615C66.3452 46.0615 65.8977 46.2038 65.5586 46.4885C65.2331 46.7731 65.0704 47.1865 65.0704 47.7288C65.0704 48.1085 65.1924 48.4268 65.4365 48.6845C65.6943 48.9285 66.0061 49.1318 66.3722 49.2945C66.752 49.4435 67.2809 49.6198 67.9589 49.8231C68.8809 50.0941 69.6335 50.3655 70.2168 50.6365C70.8 50.9075 71.3015 51.3141 71.722 51.8565C72.1425 52.3988 72.3526 53.1105 72.3526 53.9915C72.3526 54.7505 72.1559 55.4555 71.7627 56.1061C71.3695 56.7568 70.793 57.2788 70.0337 57.6718C69.2744 58.0515 68.3724 58.2411 67.3283 58.2411ZM80.395 58.2411C79.0662 58.2411 77.8457 57.9295 76.7336 57.3058C75.6218 56.6821 74.7401 55.8215 74.0892 54.7235C73.4383 53.6118 73.1128 52.3581 73.1128 50.9618C73.1128 49.5791 73.4383 48.3388 74.0892 47.2408C74.7401 46.1291 75.6218 45.2618 76.7336 44.6381C77.8457 44.0145 79.0662 43.7028 80.395 43.7028C81.7376 43.7028 82.9581 44.0145 84.0565 44.6381C85.1686 45.2618 86.0433 46.1291 86.6805 47.2408C87.3315 48.3388 87.6569 49.5791 87.6569 50.9618C87.6569 52.3581 87.3315 53.6118 86.6805 54.7235C86.0433 55.8215 85.1686 56.6821 84.0565 57.3058C82.9447 57.9295 81.7242 58.2411 80.395 58.2411ZM80.395 55.6995C81.2494 55.6995 82.002 55.5098 82.6529 55.1301C83.3039 54.7371 83.8124 54.1811 84.1786 53.4628C84.5447 52.7444 84.7278 51.9108 84.7278 50.9618C84.7278 50.0128 84.5447 49.1861 84.1786 48.4811C83.8124 47.7628 83.3039 47.2138 82.6529 46.8341C82.002 46.4545 81.2494 46.2648 80.395 46.2648C79.5407 46.2648 78.7814 46.4545 78.1168 46.8341C77.4659 47.2138 76.9573 47.7628 76.5912 48.4811C76.225 49.1861 76.042 50.0128 76.042 50.9618C76.042 51.9108 76.225 52.7444 76.5912 53.4628C76.9573 54.1811 77.4659 54.7371 78.1168 55.1301C78.7814 55.5098 79.5407 55.6995 80.395 55.6995ZM91.6064 55.8418H96.2849V58.0988H88.7586V43.9061H91.6064V55.8418ZM99.8851 43.9061V52.6901C99.8851 53.6525 100.136 54.3914 100.638 54.9065C101.14 55.4081 101.845 55.6588 102.753 55.6588C103.675 55.6588 104.387 55.4081 104.889 54.9065C105.391 54.3914 105.642 53.6525 105.642 52.6901V43.9061H108.51V52.6698C108.51 53.8761 108.245 54.8998 107.717 55.7401C107.201 56.5671 106.503 57.1905 105.621 57.6108C104.753 58.0311 103.784 58.2411 102.713 58.2411C101.655 58.2411 100.692 58.0311 99.824 57.6108C98.9697 57.1905 98.2917 56.5671 97.7899 55.7401C97.288 54.8998 97.0373 53.8761 97.0373 52.6698V43.9061H99.8851ZM121.737 43.9061V46.2038H117.954V58.0988H115.106V46.2038H111.322V43.9061H121.737ZM159.415 58.0988H156.567L150.119 48.3591V58.0988H147.271V43.8858H150.119L156.567 53.6458V43.8858H159.415V58.0988ZM167.945 58.2411C166.955 58.2411 166.06 58.0718 165.26 57.7328C164.474 57.3938 163.85 56.9058 163.389 56.2688C162.928 55.6318 162.69 54.8795 162.677 54.0118H165.728C165.769 54.5948 165.972 55.0555 166.338 55.3945C166.718 55.7335 167.233 55.9028 167.884 55.9028C168.549 55.9028 169.071 55.7468 169.451 55.4351C169.83 55.1098 170.02 54.6895 170.02 54.1745C170.02 53.7541 169.891 53.4085 169.634 53.1375C169.376 52.8665 169.051 52.6562 168.657 52.5071C168.278 52.3445 167.749 52.1681 167.071 51.9785C166.149 51.7075 165.396 51.4431 164.813 51.1855C164.243 50.9145 163.748 50.5145 163.328 49.9858C162.921 49.4435 162.717 48.7251 162.717 47.8305C162.717 46.9901 162.928 46.2581 163.348 45.6345C163.769 45.0108 164.358 44.5365 165.118 44.2111C165.877 43.8722 166.745 43.7028 167.721 43.7028C169.186 43.7028 170.373 44.0621 171.281 44.7805C172.204 45.4855 172.712 46.4748 172.807 47.7491H169.674C169.647 47.2611 169.437 46.8611 169.044 46.5495C168.664 46.2241 168.156 46.0615 167.518 46.0615C166.962 46.0615 166.515 46.2038 166.176 46.4885C165.85 46.7731 165.687 47.1865 165.687 47.7288C165.687 48.1085 165.809 48.4268 166.053 48.6845C166.311 48.9285 166.623 49.1318 166.989 49.2945C167.369 49.4435 167.898 49.6198 168.576 49.8231C169.498 50.0941 170.251 50.3655 170.834 50.6365C171.417 50.9075 171.919 51.3141 172.339 51.8565C172.759 52.3988 172.97 53.1105 172.97 53.9915C172.97 54.7505 172.773 55.4555 172.38 56.1061C171.987 56.7568 171.41 57.2788 170.651 57.6718C169.891 58.0515 168.99 58.2411 167.945 58.2411ZM177.514 58.2411C176.998 58.2411 176.571 58.0851 176.232 57.7735C175.907 57.4481 175.744 57.0481 175.744 56.5738C175.744 56.0995 175.907 55.7062 176.232 55.3945C176.571 55.0691 176.998 54.9065 177.514 54.9065C178.015 54.9065 178.429 55.0691 178.754 55.3945C179.08 55.7062 179.243 56.0995 179.243 56.5738C179.243 57.0481 179.08 57.4481 178.754 57.7735C178.429 58.0851 178.015 58.2411 177.514 58.2411Z" fill="white"/>
<path opacity="0.9" fill-rule="evenodd" clip-rule="evenodd" d="M144.973 49.7794L144.973 52.6525L139.664 52.6525L142.245 57.1128L139.751 58.5495L135.508 51.2161L139.751 43.8818L142.245 45.3182L139.664 49.7794L144.973 49.7794Z" fill="url(#paint0_linear_152_283)"/>
<path opacity="0.9" fill-rule="evenodd" clip-rule="evenodd" d="M129.708 52.6516L129.708 49.7785L135.016 49.7785L132.435 45.3182L134.929 43.8818L139.172 51.2152L134.929 58.5495L132.435 57.1128L135.017 52.6516L129.708 52.6516Z" fill="white"/>
<path d="M127.752 23.5684V37.761H124.904V23.5684H127.752Z" fill="white"/>
<path d="M127.752 43.9004V58.0931H124.904V43.9004H127.752Z" fill="white"/>
<mask id="mask0_152_283" style="mask-type:luminance" maskUnits="userSpaceOnUse" x="110" y="23" width="13" height="12">
<path d="M122.046 23.2324H110.422V34.8515H122.046V23.2324Z" fill="white"/>
</mask>
<g mask="url(#mask0_152_283)">
<path d="M119.633 33.5362H122.046V23.2324H111.738V26.3016H116.782L110.86 32.2206L110.422 32.6592L110.86 33.1525L112.122 34.4131L112.615 34.8515L113.054 34.4131L118.975 28.4938V33.5362H119.633Z" fill="url(#paint1_linear_152_283)"/>
</g>
</g>
<defs>
<linearGradient id="paint0_linear_152_283" x1="144.973" y1="51.2155" x2="135.508" y2="51.2155" gradientUnits="userSpaceOnUse">
<stop/>
<stop offset="1" stop-color="#FE572A"/>
</linearGradient>
<linearGradient id="paint1_linear_152_283" x1="116.234" y1="23.2324" x2="116.234" y2="34.8515" gradientUnits="userSpaceOnUse">
<stop stop-color="#FE572A"/>
<stop offset="1"/>
</linearGradient>
<clipPath id="clip0_152_283">
<rect width="180.167" height="61" fill="white"/>
</clipPath>
</defs>
</svg>
