<svg width="209" height="28" viewBox="0 0 209 28" fill="none" xmlns="http://www.w3.org/2000/svg">
<path d="M197.391 0.967931L197.306 0.788086H191.266L200.794 26.5958V26.7757H206.919L197.391 0.967931Z" fill="white"/>
<path d="M181.141 0.878009L173.74 26.7757H179.355L185.141 7.62216H192.032L189.564 0.788086L181.141 0.878009Z" fill="white"/>
<path d="M6.82663 13.1973L6.74156 13.1074V8.1617L9.63405 4.9245H27.2443L35.7515 13.8268V5.10435L31.4978 0.878009L5.21024 0.788086L1.29688 5.10435V10.7694L6.82663 16.8842V13.1973Z" fill="white"/>
<path d="M30.3069 19.4922H30.2218V19.6719L27.1592 22.5494H9.54897L1.29688 13.0177V22.4596L5.55053 26.7759H31.4978L35.8366 22.3696V16.1651L30.3069 10.5898V19.4922Z" fill="white"/>
<path d="M94.6226 13.1973L94.5375 13.1074V8.1617L97.43 4.9245H114.955L123.462 13.8268V5.10435L119.294 0.878009L93.0063 0.788086L89.0078 5.10435V10.7694L94.6226 16.8842V13.1973Z" fill="white"/>
<path d="M118.103 19.4922H118.018V19.6719L114.955 22.5494H97.3449L89.0078 13.0177V22.4596L93.2615 26.7759H119.294L123.548 22.3696V16.1651L118.103 10.5898V19.4922Z" fill="white"/>
<path d="M66.4624 0.788086L63.1445 18.7725L64.5058 26.6857L66.8027 26.7757L70.1206 7.62216H74.2891V26.9554H79.8189V5.19427L75.9906 0.788086H66.4624Z" fill="white"/>
<path d="M48.3429 0.87793L44.5996 5.37405V26.8654H44.9399C45.4504 26.8654 48.1727 26.8654 49.9592 26.8654H50.2144V7.71201H54.3831L57.4457 26.9553H63.0605L58.4665 0.87793H48.3429Z" fill="white"/>
<path d="M156.471 0.788086L162.17 5.46403V19.5818L158.088 22.5492H139.031V5.10435H159.023L153.834 0.788086H133.246V26.7757H163.702L167.785 22.4594V5.10435L162.596 0.788086H156.471Z" fill="white"/>
</svg>
