<svg width="205" height="70" viewBox="0 0 205 70" fill="none" xmlns="http://www.w3.org/2000/svg">
<path d="M194.348 10.3426C193.921 9.91557 193.491 9.51132 193.064 9.10707C189.141 5.53997 184.432 2.85255 179.2 1.3551C178.201 1.07042 177.156 0.808509 176.134 0.61777C174.019 0.213518 171.829 0 169.595 0C167.36 0 165.148 0.213518 163.007 0.61777C161.959 0.808509 160.937 1.07042 159.941 1.3551C154.734 2.85255 150.025 5.53997 146.102 9.10707C145.675 9.51132 145.246 9.91557 144.819 10.3426C138.564 16.6455 134.689 25.3227 134.689 34.8824C134.689 45.393 139.35 54.8332 146.723 61.23C147.483 61.8962 148.269 62.514 149.1 63.1317C154.355 66.9607 160.73 69.3606 167.625 69.7193C168.22 69.7421 168.815 69.7677 169.41 69.7677H169.575C170.144 69.7677 170.716 69.7449 171.263 69.7193C178.087 69.3862 184.413 67.0803 189.668 63.3709C190.476 62.8015 191.262 62.1809 192.022 61.5403C199.609 55.1435 204.434 45.561 204.434 34.8597C204.483 25.3483 200.605 16.6683 194.351 10.3426H194.348ZM169.595 3.63542C170.688 3.63542 171.758 3.68382 172.806 3.80055C179.154 4.44109 184.933 7.01179 189.571 10.912C189.548 10.9347 189.5 10.9604 189.477 10.9604C187.313 12.1959 185.244 13.5994 183.319 15.1709C179.92 10.9604 175.829 7.39611 171.24 4.58912C170.787 4.30443 170.312 4.04253 169.837 3.78062C169.743 3.73222 169.672 3.68667 169.6 3.63827L169.595 3.63542ZM180.082 14.0037C180.749 14.741 181.389 15.4783 182.01 16.2384C178.682 19.1166 175.755 22.4673 173.307 26.1796C173.093 26.1796 172.88 26.1568 172.666 26.1568H165.746C163.297 22.4246 160.371 19.071 157.043 16.1929C157.923 15.1225 158.851 14.0777 159.824 13.0784C162.774 10.0835 166.03 7.53846 169.526 5.51719C173.404 7.75197 176.945 10.6045 180.085 14.0065L180.082 14.0037ZM166.315 3.80339C167.363 3.68382 169.526 3.63827 169.526 3.63827C169.432 3.68667 169.361 3.73222 169.29 3.78062C168.815 4.04253 168.362 4.30443 167.912 4.58912C163.346 7.37049 159.232 10.9376 155.833 15.1481C153.931 13.6022 151.884 12.2244 149.746 10.986C149.724 10.9632 149.675 10.9376 149.652 10.9376C154.219 7.03741 159.998 4.46955 166.321 3.80339H166.315ZM144.651 53.2873C141.061 48.4363 138.826 42.4921 138.587 36.024C138.564 35.8105 138.564 35.597 138.564 35.3579V34.6689C138.564 25.7754 142.322 17.7387 148.314 12.0792C148.337 12.102 148.386 12.102 148.408 12.1276C150.62 13.3631 152.761 14.7922 154.783 16.432C148.625 24.5171 144.867 34.6718 144.676 45.7773C144.628 46.5147 144.628 50.3921 144.653 53.293L144.651 53.2873ZM146.316 45.82C146.507 35.4034 149.931 25.5362 156.041 17.4996C157.302 18.5928 158.538 19.7828 159.702 21.0667C161.199 22.6837 162.651 24.5398 163.887 26.3447C156.992 27.3668 151.688 33.1231 151.688 40.0893L151.782 48.8405L146.313 48.8633C146.29 47.3659 146.29 46.1759 146.313 45.82H146.316ZM163.272 60.9453C163.201 61.1105 163.081 61.2556 162.962 61.3496C162.819 61.4435 162.677 61.5403 162.509 61.5859C162.344 61.6343 162.176 61.6571 161.985 61.6571C161.772 61.6571 161.581 61.6343 161.367 61.5859C161.154 61.5375 160.986 61.4663 160.798 61.3724C160.562 61.4663 160.322 61.5375 160.061 61.5859C159.799 61.6343 159.562 61.6571 159.323 61.6571H158.728L158.609 61.5859V60.8486L158.728 60.7774H159.656C159.75 60.7774 159.847 60.7774 159.941 60.7546C159.87 60.635 159.799 60.5183 159.75 60.3988C159.727 60.2792 159.702 60.1368 159.702 59.9717C159.702 59.8066 159.725 59.6386 159.773 59.4963C159.821 59.354 159.915 59.2116 160.009 59.092C160.103 58.9725 160.223 58.8785 160.365 58.8074C160.508 58.7362 160.65 58.6878 160.818 58.6878C160.986 58.6878 161.128 58.7106 161.27 58.8074C161.413 58.8785 161.532 58.9725 161.626 59.092C161.72 59.2116 161.791 59.354 161.863 59.4963C161.911 59.6614 161.934 59.8066 161.934 59.9717C161.934 60.1368 161.911 60.282 161.863 60.3988C161.814 60.5155 161.769 60.6607 161.672 60.7546H161.911C162.076 60.7546 162.196 60.7318 162.292 60.7318C162.386 60.709 162.483 60.6834 162.529 60.6379C162.577 60.6151 162.623 60.5667 162.648 60.5183C162.671 60.4699 162.671 60.4471 162.671 60.3988C162.671 60.2564 162.648 60.0657 162.577 59.8749C162.506 59.6842 162.412 59.4935 162.267 59.2799C162.125 59.0664 161.934 58.8757 161.698 58.7106C161.461 58.5198 161.174 58.3775 160.818 58.2579L161.151 57.5206C161.507 57.6629 161.817 57.8309 162.102 58.0444C162.386 58.2579 162.6 58.4714 162.791 58.7333C162.981 58.9953 163.101 59.2315 163.195 59.5191C163.289 59.781 163.337 60.0657 163.337 60.3276C163.386 60.5895 163.337 60.7802 163.269 60.9453H163.272ZM166.315 61.6599H165.649C165.649 61.304 165.626 60.9226 165.578 60.5411C165.555 60.1596 165.507 59.781 165.435 59.4223C165.364 59.0408 165.293 58.6849 165.222 58.3291C165.128 57.9732 165.057 57.6402 164.937 57.3071L165.769 57.0452C165.862 57.3071 165.934 57.569 166.005 57.8764C166.076 58.1839 166.124 58.4942 166.17 58.8273C166.218 59.1604 166.264 59.4934 166.289 59.8265C166.312 60.1596 166.338 60.4927 166.338 60.7774C166.361 61.1105 166.338 61.3951 166.315 61.6571V61.6599ZM166.529 47.5595C165.697 48.4875 163.961 50.2241 163.414 50.8162C162.89 51.434 160.752 51.3856 160.752 51.3856C160.752 51.3856 162.512 49.9337 163.488 49.222C164.462 48.4847 166.247 46.3211 166.961 45.561C167.676 44.8009 168.889 43.255 169.245 42.8252C169.6 42.3981 170.696 41.2309 170.696 41.2309C170.696 41.2309 171.314 42.3953 169.723 44.3454C169.034 45.1055 167.368 46.6058 166.537 47.5566L166.529 47.5595ZM164.96 44.3738C165.245 44.1603 165.222 43.7561 165.245 43.4002C165.267 42.734 164.889 42.1647 165.481 41.6409C165.885 41.3078 166.717 40.9747 167.192 41.285C168.356 42.0223 166.623 43.7589 166.099 44.3511C165.458 45.0656 164.721 45.6834 163.91 46.1588C163.411 46.4435 162.125 47.3716 161.578 46.8961C161.507 46.825 161.458 46.7054 161.436 46.6115C160.983 44.8265 161.746 43.329 162.768 41.9512C163.386 41.1199 164.075 40.3569 164.812 39.668C164.932 39.574 165.287 39.1698 165.453 39.1442C165.475 39.1442 165.43 39.1926 165.404 39.2381C165.381 39.2865 165.333 39.3321 165.333 39.3577C165.023 39.8815 162.788 43.7561 162.765 44.4706C162.742 45.208 164.502 44.7069 164.954 44.3738H164.96ZM168.456 48.7267C168.504 48.7039 168.55 48.6783 168.598 48.6783L171.69 48.368C173.022 48.2256 173.449 46.4406 172.88 45.9424C172.311 45.4442 171.738 45.3019 171.667 44.3254C171.619 43.8728 172.333 42.065 173.973 42.8992C174.876 43.3746 175.804 43.3034 175.804 43.3034V42.9476L175.661 41.379C174.614 41.5925 174.901 40.8551 174.995 40.4993C175.115 40.1434 175.493 40.263 176.447 39.8331C177.304 39.4516 177.611 39.2865 177.779 39.2865C177.779 39.2381 177.828 39.2865 177.779 39.2865L177.993 40.8808C177.993 41.0231 177.922 41.1427 177.779 41.1654C177.637 41.1882 177.469 41.2138 177.327 41.285C177.09 41.3789 177.162 41.4757 177.162 41.7377C177.184 42.2359 177.139 42.7597 177.042 43.2607C176.994 43.5226 176.922 43.8073 176.757 44.0208C176.424 44.4962 175.806 44.5674 175.402 44.9717C174.998 45.3759 174.594 45.803 174.238 46.2556C174.002 46.5403 173.785 47.4684 173.714 47.8498C173.452 49.1822 170.241 50.3465 168.672 50.3465C166.366 50.3465 168.103 48.9914 168.459 48.7295L168.456 48.7267ZM173.449 39.5228C174.782 38.6203 174.924 38.4296 174.876 39.0246L174.853 39.3349C174.83 39.5 174.759 39.668 174.617 39.7619C174.403 39.9271 174.093 40.2146 173.856 40.7612C173.523 41.6409 172.143 40.4281 173.452 39.5257L173.449 39.5228ZM171.215 61.6371C171.049 61.6599 170.881 61.6855 170.691 61.7083C170.526 61.7311 170.358 61.7311 170.192 61.7311C169.646 61.7311 169.242 61.6371 168.957 61.4464C168.672 61.2556 168.553 60.971 168.553 60.5895C168.553 60.3532 168.624 60.1368 168.743 59.9489C168.863 59.7354 169.028 59.5675 169.267 59.4507C169.005 59.3796 168.84 59.2856 168.698 59.1404C168.556 58.9981 168.484 58.8074 168.484 58.6166C168.484 58.4259 168.556 58.2351 168.675 58.07C168.795 57.9049 168.96 57.737 169.173 57.5946C169.387 57.4523 169.626 57.3327 169.911 57.2388C170.195 57.1448 170.506 57.0736 170.839 57.0252L170.674 57.8565C170.483 57.8793 170.292 57.9277 170.127 57.9761C169.962 58.0245 169.794 58.0956 169.674 58.1668C169.555 58.238 169.438 58.3092 169.364 58.3803C169.293 58.4515 169.245 58.5227 169.245 58.6166C169.245 58.7362 169.338 58.8301 169.506 58.9013C169.672 58.9725 169.933 58.9953 170.244 58.9953H170.506C170.577 58.9953 170.648 58.9953 170.671 58.9725L170.6 59.7098C170.195 59.7582 169.885 59.8522 169.672 59.9717C169.458 60.1141 169.338 60.2564 169.338 60.4471C169.338 60.5895 169.432 60.6834 169.6 60.7802C169.765 60.8514 170.027 60.8998 170.386 60.8998C170.551 60.8998 170.742 60.8998 170.933 60.877C171.123 60.8542 171.289 60.8286 171.431 60.8058L171.217 61.6371H171.215ZM175.425 57.9505C175.26 57.9277 175.092 57.9277 174.95 57.9021C174.784 57.8793 174.617 57.8793 174.474 57.8793C174.164 57.8793 173.856 57.9021 173.617 57.9277C173.666 58.1412 173.711 58.3803 173.76 58.6166C173.808 58.8529 173.831 59.1148 173.879 59.354C173.928 59.5902 173.928 59.8521 173.95 60.0913C173.973 60.3276 173.973 60.5667 173.973 60.7802C173.973 61.0905 173.95 61.3752 173.925 61.6371H173.259C173.236 60.9226 173.187 60.1852 173.068 59.4479C172.948 58.7106 172.783 58.0216 172.592 57.3555L173.139 57.0708C173.353 57.048 173.566 56.9996 173.757 56.9996C173.97 56.9768 174.184 56.9768 174.397 56.9768C174.588 56.9768 174.779 56.9768 174.992 56.9996C175.183 57.0224 175.374 57.0224 175.562 57.0708L175.419 57.9505H175.425ZM179.61 58.07C179.516 58.3803 179.396 58.7106 179.277 59.092C179.157 59.4735 179.041 59.8778 178.895 60.3048C178.753 60.7318 178.633 61.1845 178.491 61.6599H177.777C177.634 61.2329 177.515 60.8286 177.372 60.4471C177.23 60.0657 177.11 59.687 176.968 59.3283C176.826 58.9725 176.706 58.6138 176.564 58.2807C176.421 57.9476 176.279 57.6145 176.111 57.2587L176.942 56.9968C177.036 57.2103 177.133 57.4238 177.227 57.7113C177.321 57.996 177.441 58.2807 177.537 58.5682C177.631 58.8785 177.751 59.186 177.848 59.4963C177.942 59.8066 178.038 60.0913 178.11 60.376C178.252 59.781 178.394 59.2116 178.537 58.665C178.679 58.1184 178.847 57.5462 179.012 56.9996L179.821 57.2615C179.798 57.5007 179.701 57.7626 179.607 58.07H179.61ZM192.617 55.6217C191.498 56.8573 190.286 57.9989 188.979 59.0465V54.315H181.418V41.2594C181.418 36.1237 177.256 31.9616 172.12 31.9616H166.674C161.538 31.9616 157.376 36.1237 157.376 41.2594V54.315H149.909V58.8102C148.625 57.7626 147.412 56.5982 146.319 55.337C146.296 54.1955 146.296 52.4133 146.296 50.6768H153.786L153.692 40.0238C153.692 33.4846 159.232 28.1326 166.059 28.1326H172.669C179.47 28.1326 185.036 33.4818 185.036 40.0238V50.654H192.646C192.646 52.4845 192.62 54.5542 192.62 55.6217H192.617ZM192.64 47.5139V48.8206H187.052V40.0694C187.052 33.1971 181.916 27.5148 175.16 26.3732C176.683 24.1612 178.394 22.0688 180.296 20.1443C181.176 19.2419 182.104 18.3593 183.055 17.5537C189.474 26.043 192.851 36.5279 192.637 47.5168L192.64 47.5139ZM200.631 35.3863C200.511 42.2358 198.157 48.5359 194.283 53.6261C194.283 51.1294 194.305 47.7758 194.305 47.5395C194.519 35.8162 190.761 24.9953 184.319 16.4605C186.363 14.7951 188.529 13.3688 190.787 12.1076C190.809 12.0849 190.858 12.0849 190.881 12.0592C196.896 17.7188 200.654 25.7554 200.654 34.6746V34.817C200.631 35.0077 200.631 35.1984 200.631 35.3863Z" fill="white"/>
<path d="M160.843 59.5195C160.248 59.5195 160.248 60.422 160.843 60.422C161.438 60.422 161.412 59.5195 160.843 59.5195Z" fill="white"/>
<path d="M29.1071 28.1034L32.865 28.055V20.1123L29.1071 20.1607C28.1335 20.1835 27.2994 20.5422 26.6332 21.2311C25.967 21.8973 25.634 22.7286 25.6596 23.6566V24.6787C25.6596 25.6295 25.9927 26.438 26.6816 27.1269C27.3705 27.8159 28.179 28.1262 29.1071 28.1034ZM27.2994 23.6566C27.2994 23.11 27.4645 22.6346 27.8232 22.2531C28.179 21.8973 28.6089 21.7293 29.1555 21.7293L31.1768 21.6809L31.2252 26.6743H29.1555C28.6573 26.6743 28.2274 26.4836 27.8488 26.0793C27.4929 25.675 27.3022 25.2224 27.3022 24.7014V23.6566H27.2994Z" fill="white"/>
<path d="M28.2239 18.5214H29.8181V16.856C29.7954 16.8332 29.7697 16.8076 29.7242 16.8076H28.2268C28.204 16.8076 28.1784 16.8304 28.1328 16.856V18.3535C28.1328 18.473 28.1812 18.5186 28.2268 18.5186L28.2239 18.5214Z" fill="white"/>
<path d="M30.6037 18.5214H32.1979V16.856L32.1495 16.8076H30.6037C30.5809 16.8076 30.5553 16.8304 30.5098 16.856V18.3535C30.5325 18.473 30.5582 18.5186 30.6037 18.5186V18.5214Z" fill="white"/>
<path d="M47.8449 31.3867H47.8933V29.7212L47.8449 29.6729H46.299C46.2762 29.6729 46.2506 29.6956 46.2051 29.7212V31.2187C46.2051 31.3383 46.2278 31.3838 46.299 31.3838H47.8449V31.3867Z" fill="white"/>
<path d="M45.4176 31.3867H45.5115V29.7212C45.4887 29.6985 45.4631 29.6729 45.4176 29.6729H43.9201C43.8973 29.6729 43.8717 29.6956 43.8262 29.7212V31.2187C43.8262 31.3383 43.8489 31.3838 43.9201 31.3838H45.4176V31.3867Z" fill="white"/>
<path d="M57.6398 20.8044C57.3067 20.4941 56.9252 20.3518 56.4498 20.3518H54.6421C53.6912 20.3518 52.9055 20.6849 52.2393 21.3738C51.5731 22.04 51.2657 22.8713 51.2885 23.7993L51.3369 25.8206V25.9857C51.1234 26.2476 50.9554 26.4127 50.813 26.4839C50.6707 26.5551 50.4316 26.6035 50.0985 26.6035H46.9129V20.1582L45.535 20.7276C45.2731 20.8471 45.1307 21.0123 45.1307 21.2514L45.1791 26.6006H37.0713V20.4173L35.739 20.8699C35.5255 21.0123 35.4287 21.203 35.4287 21.3937V28.0041C35.4287 29.6211 34.6429 30.4296 33.0516 30.4296H32.7412L32.1719 31.8075C32.505 31.9015 32.9576 31.9499 33.5497 31.9499C34.6686 31.9499 35.5482 31.6168 36.166 30.9762C36.7838 30.3357 37.0941 29.3592 37.0941 28.0525H50.1013C50.7419 28.0525 51.3625 27.8618 51.9091 27.4831C52.2906 27.8646 52.766 28.0525 53.361 28.0525H56.1907C56.8313 28.0525 57.3323 27.839 57.6882 27.4347C58.044 27.0305 58.212 26.4839 58.212 25.795C58.212 24.084 58.1892 22.8001 58.1636 21.9432C58.138 21.4905 57.9501 21.1091 57.6398 20.8016V20.8044ZM56.1879 26.6063H53.3097C52.9539 26.6063 52.7859 26.3444 52.7859 25.8206V23.7993C52.7859 23.2755 52.9766 22.8257 53.3553 22.4215C53.7368 22.04 54.1866 21.8521 54.7332 21.8521H56.185C56.4213 21.8521 56.5665 21.946 56.6377 22.1624L56.7316 25.8234C56.7089 26.3473 56.5181 26.6092 56.185 26.6092L56.1879 26.6063Z" fill="white"/>
<path d="M68.4125 27.2238C69.0302 26.6288 69.3405 25.846 69.3405 24.8923V16.0215L67.937 16.5909C67.7235 16.6848 67.6267 16.8528 67.6267 17.1147V24.6531C67.6267 25.9855 67.0574 26.6516 65.9158 26.6516H65.5115L63.2995 17.2599H61.5402L63.7522 26.6516H59.9004V28.0551H66.0837C67.0346 28.0551 67.8203 27.7932 68.4153 27.2238H68.4125Z" fill="white"/>
<path d="M61.2777 16.3575L64.1075 15.4779L63.8456 14.5042L62.704 14.9085C62.2286 14.695 61.9894 14.4559 61.9894 14.1484C61.9894 13.8865 62.2514 13.7441 62.7752 13.7441C62.9887 13.7441 63.131 13.7669 63.2506 13.7925L63.299 12.8189C63.1567 12.7961 62.9659 12.7705 62.7296 12.7705C62.2058 12.7705 61.7788 12.8901 61.4457 13.152C61.1126 13.4139 60.9703 13.7214 60.9703 14.1028C60.9703 14.5555 61.1838 14.9341 61.588 15.2444L60.9219 15.4579L61.2777 16.3604V16.3575Z" fill="white"/>
<path d="M72.6467 16.0243L71.3144 16.5937C71.0525 16.7133 70.9102 16.8784 70.9102 17.1175V28.0551H72.6211V16.0215H72.6439L72.6467 16.0243Z" fill="white"/>
<path d="M79.5891 18.5214H81.1834V16.856C81.1606 16.8332 81.135 16.8076 81.0894 16.8076H79.592C79.5692 16.8076 79.5436 16.8304 79.498 16.856V18.3535C79.498 18.473 79.5464 18.5186 79.592 18.5186L79.5891 18.5214Z" fill="white"/>
<path d="M81.967 18.5214H83.5612V16.856L83.5128 16.8076H81.967C81.9442 16.8076 81.9186 16.8304 81.873 16.856V18.3535C81.8958 18.473 81.9214 18.5186 81.967 18.5186V18.5214Z" fill="white"/>
<path d="M106.887 28.058C107.528 28.058 108.029 27.8445 108.385 27.4402C108.741 27.036 108.909 26.4894 108.909 25.8005C108.909 24.0895 108.886 22.8056 108.86 21.9487C108.837 21.4733 108.647 21.0918 108.336 20.7843C108.003 20.474 107.622 20.3317 107.146 20.3317H105.339C104.388 20.3317 103.602 20.6648 102.936 21.3537C102.27 22.0199 101.962 22.8511 101.985 23.7792L102.033 25.8005V25.9656C101.82 26.2275 101.652 26.3926 101.51 26.4638C101.367 26.535 101.128 26.5834 100.795 26.5834H97.2763C97.729 25.2055 97.9425 24.0155 97.9425 23.0163C97.9425 22.017 97.7517 21.2313 97.3731 20.7103C96.8977 20.0925 96.1376 19.7822 95.0672 19.7822C94.401 19.7822 93.6637 19.8762 92.8552 20.0925L90.9535 20.5452L90.4296 22.2561L91.8075 26.5834H84.531V20.0925L80.7731 20.1409C79.7995 20.1637 78.9654 20.5224 78.2992 21.2114C77.6331 21.8775 77.3 22.7088 77.3256 23.6369V24.6589C77.3256 25.6097 77.6587 26.4182 78.3476 27.1072C79.0138 27.7961 79.8223 28.1292 80.7731 28.1064L84.531 28.058H100.795C101.436 28.058 102.056 27.8673 102.603 27.4886C102.984 27.8701 103.46 28.058 104.055 28.058H106.884H106.887ZM82.4186 26.6061V26.6545H80.8244C80.3262 26.6545 79.8963 26.4638 79.5177 26.0595C79.1618 25.6553 78.9711 25.2026 78.9711 24.6817V23.6596C78.9711 23.113 79.1362 22.6376 79.4949 22.2561C79.8508 21.9003 80.2806 21.7323 80.8272 21.7323L82.8485 21.6839L82.8969 26.6289H82.4215V26.6061H82.4186ZM96.0692 25.0119C95.9041 25.6297 95.7134 26.0339 95.5227 26.2246C95.3319 26.4154 95.0245 26.535 94.6202 26.6061H93.4786L92.0751 22.3729L92.2886 21.8035C92.5021 21.7095 92.7413 21.6384 93.026 21.5672C93.3107 21.496 93.5498 21.4476 93.7633 21.4476C94.1676 21.3537 94.5234 21.3053 94.7853 21.3053C95.3319 21.3053 95.7589 21.4476 96.0692 21.7579C96.3055 21.9942 96.4251 22.4241 96.4251 23.0419C96.3767 23.6596 96.2571 24.3258 96.0664 25.0147L96.0692 25.0119ZM103.488 25.8204V23.7991C103.488 23.2753 103.679 22.8255 104.058 22.4213C104.439 22.0398 104.889 21.8519 105.435 21.8519H106.887C107.124 21.8519 107.269 21.9458 107.34 22.1622L107.434 25.8232C107.434 26.3471 107.269 26.609 106.91 26.609H104.032C103.65 26.609 103.485 26.3471 103.485 25.8232L103.488 25.8204Z" fill="white"/>
<path d="M122.489 29.1738H120.992C120.898 29.1738 120.85 29.1966 120.85 29.2222V30.7681C120.85 30.8165 120.898 30.862 120.992 30.862H122.489C122.538 30.862 122.583 30.8392 122.583 30.7681V29.2222C122.583 29.1994 122.583 29.1738 122.561 29.1738H122.489Z" fill="white"/>
<path d="M114.995 28.0577H124.791L124.626 26.6058H124.057V23.5141C124.034 22.5149 123.701 21.6836 123.083 21.0402C122.465 20.3997 121.679 20.0666 120.706 20.0666C120.444 20.0666 120.04 20.115 119.541 20.2089C119.018 20.3029 118.568 20.4224 118.186 20.542L118.448 21.9199C119.447 21.6836 120.208 21.564 120.754 21.564C121.301 21.564 121.705 21.7291 122.038 22.0879C122.371 22.4437 122.514 22.9191 122.514 23.4913L122.562 26.583H113.002V15.9785L111.67 16.5479C111.408 16.6675 111.266 16.8326 111.266 17.0717V28.0093H114.998V28.0577H114.995Z" fill="white"/>
<path d="M3.85133 38.5684C3.75738 38.5684 3.70898 38.5911 3.70898 38.6168V40.1854C3.70898 40.2565 3.75738 40.2793 3.85133 40.2793H5.37439C5.44556 40.2793 5.46834 40.2565 5.46834 40.1854V38.6168C5.46834 38.594 5.46834 38.5684 5.44556 38.5684H3.85133Z" fill="white"/>
<path d="M29.6272 45.2015H29.0322V42.0614C29.0094 41.0394 28.6763 40.2053 28.0586 39.542C27.4408 38.8758 26.6323 38.5684 25.633 38.5684C25.3711 38.5684 24.9669 38.6168 24.4431 38.7335C23.9192 38.8274 23.4694 38.947 23.0652 39.0666L23.3271 40.4444C24.3491 40.2081 25.1121 40.0886 25.6587 40.0886C26.2053 40.0886 26.6323 40.2793 26.9654 40.6352C27.2984 40.991 27.4636 41.4664 27.4636 42.0614L27.512 45.2015H21.6873C21.3542 45.2015 21.1179 45.1531 20.9727 45.082C20.8304 45.0108 20.6624 44.8457 20.4745 44.6065V44.393C20.4745 42.6564 20.4518 41.3497 20.4261 40.4928C20.4034 40.0174 20.2126 39.6132 19.8796 39.3029C19.5465 38.9925 19.1422 38.8274 18.6668 38.8274H16.8363C15.8854 38.8274 15.0769 39.1605 14.388 39.8494C13.7218 40.5384 13.3887 41.3469 13.4144 42.3234L13.4628 44.393V44.5838C13.2492 44.8457 13.0813 45.0364 12.9162 45.1076C12.7738 45.1787 12.5347 45.2271 12.2016 45.2271H9.72769V41.5177L8.37259 42.1127C8.06228 42.2066 7.91994 42.3746 7.91994 42.6593L7.96833 44.4186V46.2975C7.96833 47.1544 7.91994 47.8206 7.84877 48.2476C7.7776 48.6747 7.61248 49.0334 7.32495 49.2953C7.06304 49.5572 6.6844 49.7707 6.20613 49.8903C5.73071 50.0326 5.23251 50.081 4.68307 50.081C4.13363 50.081 3.63543 50.0098 3.18563 49.8675C2.7102 49.7252 2.3999 49.5116 2.212 49.2497C1.83053 48.7743 1.61701 48.0142 1.61701 46.9666C1.61701 45.7054 1.87892 44.3987 2.37712 43.018L0.760113 42.9696C0.261914 44.3247 0 45.6342 0 46.9182C0 48.3928 0.333085 49.5088 0.973626 50.2718C1.32948 50.6988 1.8533 51.0091 2.51946 51.2454C3.18563 51.4589 3.92296 51.5785 4.73147 51.5785C5.53997 51.5785 6.22891 51.4845 6.92069 51.2681C7.60963 51.0546 8.13345 50.77 8.48931 50.3657C8.87079 50.0098 9.15547 49.5572 9.32059 48.9878C9.4857 48.4412 9.60527 47.6811 9.65367 46.7274H12.1276C12.7937 46.7274 13.3887 46.5367 13.9581 46.1324C14.3396 46.5139 14.8378 46.7274 15.4328 46.7274H18.3109C18.9059 46.7274 19.4041 46.5367 19.7856 46.1324C20.2838 46.5139 20.8788 46.7274 21.5706 46.7274H29.704L29.6329 45.2044L29.6272 45.2015ZM18.402 45.2015H15.4783C15.1225 45.2015 14.9317 44.9396 14.9317 44.393V42.3234C14.9317 41.7768 15.1225 41.3241 15.5267 40.9455C15.9082 40.564 16.3836 40.3505 16.9046 40.3505H18.3793C18.6156 40.3505 18.7607 40.4444 18.8319 40.6608L18.9259 44.3702C18.9486 44.9425 18.7835 45.2044 18.402 45.2044V45.2015Z" fill="white"/>
<path d="M36.4768 35.5707V45.2016H33.6954V38.9243L32.3403 39.377C32.1268 39.5193 32.03 39.7101 32.03 39.9236V46.6535C32.03 48.2933 31.2215 49.1274 29.6045 49.1274H29.2942L28.6992 50.5053C29.0323 50.5993 29.4849 50.6476 30.0771 50.6476C31.2187 50.6476 32.0984 50.3146 32.7161 49.674C33.3339 49.0079 33.667 48.0342 33.667 46.7247H38.2077V34.4775L36.8526 35.0725C36.5907 35.1437 36.4711 35.3344 36.4711 35.5707H36.4768Z" fill="white"/>
<path d="M39.8535 35.5713V46.6768H41.6129V34.4297L40.2578 35.0247C39.9731 35.1442 39.8535 35.335 39.8535 35.5713Z" fill="white"/>
<path d="M55.5248 48.293H54.0017C53.9078 48.293 53.8594 48.3158 53.8594 48.3414V49.91C53.8594 49.9811 53.9078 50.0039 54.0017 50.0039H55.5248C55.596 50.0039 55.6187 49.9811 55.6187 49.91V48.3414C55.6187 48.3186 55.6187 48.293 55.596 48.293H55.5248Z" fill="white"/>
<path d="M61.5411 44.8234C61.3276 44.6326 61.1141 44.254 60.9462 43.6818C60.6131 42.7081 60.448 41.9452 60.448 41.447C60.448 40.5901 60.9461 40.1403 61.9226 40.1403C62.492 40.1403 63.2777 40.2826 64.2542 40.5446L64.5161 38.9759C63.4457 38.714 62.5176 38.5717 61.7347 38.5717C60.7611 38.5717 60.0238 38.808 59.5711 39.2862C59.1185 39.7617 58.8822 40.499 58.8822 41.4755C58.8822 42.4519 59.0957 43.6647 59.4999 45.1849H55.7677V38.6457L54.3899 39.2407C54.1279 39.3603 53.9856 39.551 53.9856 39.7873L54.034 45.2077H50.8228V42.5687C50.8 41.3331 50.4413 40.3567 49.7751 39.6449C49.1089 38.9076 48.252 38.5518 47.2073 38.5518C46.1625 38.5518 45.1632 38.8848 44.1156 39.5254L44.5198 40.9033C45.4223 40.3567 46.2308 40.0947 46.9937 40.0947C47.6115 40.0947 48.1126 40.2855 48.4912 40.6897C48.8727 41.094 49.0606 41.6634 49.0862 42.3779L49.1801 45.1593H43.3555V46.6824H65.2791V45.2077C63.9012 45.2077 62.9959 45.1849 62.5688 45.1593C62.1162 45.1365 61.7831 45.0169 61.5468 44.8262L61.5411 44.8234Z" fill="white"/>
<path d="M77.377 37.0936V35.5705C77.377 35.5221 77.3542 35.4766 77.283 35.4766H75.7144C75.6916 35.4766 75.666 35.4766 75.666 35.4993V37.0936C75.666 37.1875 75.6888 37.2359 75.7144 37.2359H77.283C77.3542 37.2131 77.377 37.1875 77.377 37.0936Z" fill="white"/>
<path d="M74.8579 37.2135C74.8806 37.2135 74.9063 37.1651 74.9063 37.0711V35.4769C74.9063 35.4541 74.8835 35.4541 74.8579 35.4541H73.2893C73.2181 35.4541 73.1953 35.4769 73.1953 35.548V37.0711C73.1953 37.1651 73.2181 37.2135 73.2893 37.2135H74.8579Z" fill="white"/>
<path d="M86.9135 37.3076C86.9846 37.3076 87.0074 37.2849 87.0074 37.2137V35.6451C87.0074 35.6223 87.0074 35.5967 86.9846 35.5967H85.3904C85.2964 35.5967 85.248 35.6194 85.248 35.6451V37.2137C85.248 37.2849 85.2964 37.3076 85.3904 37.3076H86.9135Z" fill="white"/>
<path d="M91.8588 48.1992H90.3357C90.2418 48.1992 90.1934 48.222 90.1934 48.2476V49.8162C90.1934 49.8874 90.2418 49.9102 90.3357 49.9102H91.8588C91.9072 49.9102 91.9527 49.8874 91.9527 49.8162V48.2476C91.9527 48.2248 91.9527 48.1992 91.9299 48.1992H91.8588Z" fill="white"/>
<path d="M91.0996 39.7809L91.148 45.2013H87.2478V38.6621L85.8699 39.2571C85.608 39.3767 85.4656 39.5674 85.4656 39.8037L85.514 45.2241H81.6366V38.6849L80.2588 39.2799C79.9969 39.3994 79.8545 39.5902 79.8545 39.8265L79.9029 45.2469H73.0078C72.1766 45.2469 71.5816 45.0561 71.2229 44.6519C70.867 44.2704 70.6763 43.6298 70.6763 42.7246C70.6763 42.178 70.7247 41.583 70.8186 40.9396H69.3923C69.1788 41.7709 69.082 42.5566 69.082 43.2711C69.082 45.5771 70.3432 46.7187 72.8399 46.7187H92.9586V38.682L91.5807 39.277C91.2248 39.3482 91.1053 39.5389 91.1053 39.7781L91.0996 39.7809Z" fill="white"/>
<path d="M104.272 38.6143L100.468 38.6627C99.4948 38.6854 98.6379 39.0441 97.9489 39.7331C97.26 40.422 96.9269 41.2305 96.9753 42.207V43.229C96.9753 44.1799 97.3084 45.014 97.9973 45.7257C98.6863 46.4374 99.4948 46.7733 100.471 46.7249L104.275 46.6765V38.6143H104.272ZM100.514 45.2474C100.016 45.2474 99.5631 45.0567 99.1816 44.6524C98.8001 44.2482 98.6123 43.7728 98.6123 43.2489V42.2269C98.6123 41.6575 98.803 41.1793 99.1588 40.8006C99.5147 40.4448 99.9674 40.254 100.514 40.254L102.584 40.2057L102.632 45.2702H100.517V45.2474H100.514Z" fill="white"/>
<path d="M101.895 35.2858V36.8088C101.895 36.9284 101.917 36.9996 101.988 36.9996H103.605V35.2886L103.557 35.2402H101.988C101.966 35.2402 101.917 35.263 101.895 35.2886V35.2858Z" fill="white"/>
<path d="M99.4688 35.2858V36.8088C99.4688 36.9284 99.4915 36.9996 99.5627 36.9996H101.18V35.2886C101.157 35.2659 101.109 35.2402 101.086 35.2402H99.5627C99.5399 35.2402 99.5143 35.263 99.4688 35.2886V35.2858Z" fill="white"/>
<path d="M106.887 39.9235V46.6535C106.887 48.2932 106.079 49.1274 104.462 49.1274H104.152L103.557 50.5052C103.89 50.5992 104.342 50.6476 104.935 50.6476C106.076 50.6476 106.956 50.3145 107.574 49.674C108.191 49.0078 108.524 48.0342 108.524 46.7246V38.9727L107.169 39.4253C107.004 39.5193 106.885 39.71 106.885 39.9235H106.887Z" fill="white"/>
<path d="M122.582 39.7812L122.63 45.2016H117.281V38.7336L113.953 38.6852C112.834 38.6852 111.955 39.1122 111.266 39.9463C110.671 40.6837 110.363 41.6118 110.363 42.7277C110.363 43.8437 110.674 44.7262 111.266 45.4635C111.883 46.272 112.789 46.6763 113.953 46.6763H115.619C115.619 47.4136 115.428 48.0086 115.024 48.4356C114.642 48.8627 114.024 49.0762 113.193 49.0762H112.883L112.288 50.4541C112.621 50.548 113.073 50.5964 113.666 50.5964C114.807 50.5964 115.687 50.2633 116.305 49.6228C116.922 48.9566 117.256 47.983 117.256 46.6991V46.6763H124.367V38.6396L122.989 39.2346C122.704 39.3542 122.585 39.5449 122.585 39.7812H122.582ZM115.616 45.2016H113.95C113.355 45.2016 112.88 44.9653 112.524 44.4871C112.168 44.0116 111.977 43.4167 111.977 42.7277C111.977 42.1583 112.168 41.5861 112.524 41.0168C112.857 40.5186 113.333 40.2567 113.95 40.2567H115.616V45.2016Z" fill="white"/>
<path d="M122.271 35.6191C122.177 35.6191 122.129 35.6419 122.129 35.6675V37.2361C122.129 37.3073 122.177 37.3301 122.271 37.3301H123.794C123.865 37.3301 123.888 37.3073 123.888 37.2361V35.6675C123.888 35.6448 123.888 35.6191 123.865 35.6191H122.271Z" fill="white"/>
</svg>
