<svg width="225" height="50" viewBox="0 0 225 50" fill="none" xmlns="http://www.w3.org/2000/svg">
<path d="M82.4469 16.312H77.2871V40.9457H82.4469V30.9591H93.7651V40.9457H98.7584V16.312H93.7651V26.2986H82.4469V16.312ZM122.061 30.4597C122.061 34.4544 120.063 36.6182 116.402 36.6182C112.74 36.6182 110.742 34.4544 110.742 30.2933V16.312H105.749V30.4597C105.749 37.4504 109.577 41.445 116.402 41.445C123.226 41.445 127.054 37.4504 127.054 30.2933V16.312H122.061V30.4597ZM170.33 16.312L164.67 33.2893L159.178 16.312H153.852L162.507 40.9457H166.668L172.327 24.8006L177.82 40.9457H182.147L190.636 16.312H185.476L179.983 33.2893L174.324 16.312H170.33ZM208.778 25.7993H199.624V20.8059H212.939V16.312H194.63V40.9457H213.439V36.4517H199.624V30.2933H208.778V25.7993ZM219.431 16.312H224.424V40.9457H219.431V16.312ZM148.192 35.7859L150.356 40.9457H155.682L144.864 16.312L144.697 16.1455H140.37L129.551 40.9457H134.71L136.874 36.1188L137.041 35.7859H148.192ZM142.533 22.4704L146.029 30.7926L146.195 31.2919H138.539L138.705 30.7926L142.533 22.4704Z" fill="white"/>
<path d="M28.0204 38.4486C28.0204 38.4486 28.1869 38.2822 28.0204 38.2822C20.364 21.6378 9.87799 8.82155 9.87799 8.82155C9.87799 8.82155 4.21888 14.1478 4.55177 19.6404C4.71822 23.8015 7.88066 26.1318 7.88066 26.1318C12.874 30.9586 24.858 37.1171 27.6875 38.4486H28.0204ZM26.0231 42.6098C26.0231 42.4433 25.6902 42.4433 25.6902 42.4433L5.71688 43.1091C7.88066 46.9373 11.5424 49.9333 15.3707 49.1011C18.0338 48.4353 24.0258 44.2742 25.8566 42.9426C26.1895 42.6097 26.0231 42.6098 26.0231 42.6098ZM26.356 40.7789C26.5224 40.6124 26.356 40.446 26.356 40.446C17.5344 34.454 0.557107 25.466 0.557107 25.466C-0.940892 30.2929 1.05644 34.1211 1.05644 34.1211C3.22022 38.7815 7.38133 40.1131 7.38133 40.1131C9.21221 40.9453 11.2095 40.9453 11.2095 40.9453H26.1895C26.356 40.9453 26.356 40.7789 26.356 40.7789ZM27.6875 0.166444C26.8553 0.166444 24.5251 0.832222 24.5251 0.832222C19.1989 2.16378 18.0338 6.99066 18.0338 6.99066C17.0351 9.98666 18.0338 13.3155 18.0338 13.3155C19.8647 21.1384 28.5198 34.1211 30.3506 36.7842L30.5171 36.9506C30.6835 36.9506 30.6835 36.7842 30.6835 36.7842C33.6795 7.65644 27.6875 0.166444 27.6875 0.166444ZM34.3453 36.7842C34.5118 36.7842 34.6782 36.6178 34.6782 36.6178C36.6755 33.7882 45.1642 20.972 46.9951 13.1491C46.9951 13.1491 47.9938 9.32088 46.9951 6.82422C46.9951 6.82422 45.6635 1.99733 40.3373 0.665777C40.3373 0.665777 38.8393 0.332889 37.1749 0C37.1749 0 31.1829 7.65644 34.1789 36.4513C34.1789 36.7842 34.3453 36.7842 34.3453 36.7842ZM39.0058 42.4433C39.0058 42.4433 38.8393 42.4433 38.8393 42.6098V42.9426C40.8366 44.2742 46.4958 48.4353 49.3253 49.1011C49.3253 49.1011 54.4851 50.932 58.9791 43.1091L39.0058 42.4433ZM64.4717 25.2995C64.4717 25.2995 47.4944 34.454 38.6729 40.446C38.6729 40.446 38.5064 40.6124 38.5064 40.7789C38.5064 40.7789 38.5064 40.9453 38.6729 40.9453H53.9857C53.9857 40.9453 55.4837 40.9453 57.4811 40.1131C57.4811 40.1131 61.6422 38.7815 63.9724 33.9546C63.9724 33.7882 65.9697 29.96 64.4717 25.2995ZM37.0084 38.4486C37.0084 38.4486 37.1749 38.6151 37.3413 38.4486C40.1709 36.9506 52.1549 30.9586 57.1482 26.1318C57.1482 26.1318 60.3106 23.6351 60.4771 19.6404C60.81 13.9813 55.1509 8.82155 55.1509 8.82155C55.1509 8.82155 44.6649 21.3049 37.0084 38.1158C37.0084 38.1158 36.842 38.2822 37.0084 38.4486Z" fill="white"/>
</svg>
