<svg width="115" height="82" viewBox="0 0 115 82" fill="none" xmlns="http://www.w3.org/2000/svg">
<path d="M53.3453 25.5347C54.9709 25.4301 56.5943 25.518 58.2178 25.4992C56.6278 27.5264 54.952 29.4993 53.3265 31.5098C52.8725 32.0684 52.3829 32.6103 51.9812 33.2212C53.816 33.2735 55.632 33.2212 57.4647 33.2379C58.6007 33.2546 59.7346 33.15 60.8539 33.3948C62.9669 33.8132 64.923 35.1585 65.9545 37.0811C66.7223 38.4786 66.9503 40.1398 66.6888 41.711C66.5842 42.3219 66.3561 42.8993 66.1992 43.4934H69.8667C70.7224 43.4934 71.6492 43.37 72.348 42.7947C73.1681 42.1482 73.4652 41.0478 73.5007 40.0352C73.553 37.7631 73.484 35.4932 73.5363 33.2212H78.1306V40.3134C78.1473 41.3783 78.0615 42.4453 77.6766 43.4411C77.1515 44.7864 76.1221 45.9224 74.846 46.6023C73.3271 47.4224 71.5802 47.686 69.8855 47.6672H37.554C35.895 49.6066 34.3217 51.615 32.6815 53.5733C32.5057 53.8013 32.2107 53.7134 31.966 53.7302H27.4072C28.9973 51.6673 30.7442 49.73 32.2986 47.6505C30.15 47.4413 28.0537 46.5668 26.5348 45.0123C24.9616 43.439 24.0892 41.2214 24.1603 39.0017C24.1603 36.8175 25.1206 34.6522 26.7106 33.1479C28.4931 31.4533 30.991 30.5621 33.4346 30.6667C35.8447 30.7357 38.2381 31.786 39.8637 33.5664C41.4893 35.3133 42.2215 37.759 41.9433 40.1168C41.8554 41.3051 41.3847 42.4055 40.8595 43.4704H59.1132C59.7764 43.4704 60.4396 43.3135 60.9648 42.893C62.5192 41.7403 62.5025 39.031 60.8957 37.9305C60.425 37.5811 59.8476 37.4054 59.2534 37.4054H46.3806C46.3806 36.2861 46.3283 35.1689 46.3974 34.0517C46.6945 33.5622 47.0961 33.1605 47.4455 32.7232C49.4205 30.3299 51.3578 27.8842 53.3683 25.5075L53.3516 25.5243L53.3453 25.5347ZM32.0162 34.8823C30.7755 35.1961 29.6939 36.1229 29.2399 37.328C28.5244 39.1628 28.9073 41.5394 30.5329 42.7612C32.0706 43.983 34.4807 43.8805 35.895 42.5164C37.8511 40.7005 37.6942 37.0476 35.4577 35.4932C34.4786 34.7756 33.1878 34.5664 32.0162 34.8823Z" fill="white"/>
<path d="M103.493 29.2898C104.698 28.9404 106.06 29.7793 106.324 31.0011C106.637 32.2229 105.782 33.5702 104.541 33.7962C103.336 34.0744 102.026 33.2188 101.798 31.997C101.537 30.8254 102.323 29.568 103.493 29.3065V29.2898Z" fill="white"/>
<path d="M84.3502 33.1879C86.1494 31.4577 88.6997 30.5497 91.1977 30.6899C93.7124 30.7778 96.1769 31.9305 97.8004 33.8699C100.054 36.4913 100.298 40.5438 98.5347 43.4957H105.941C106.78 43.4957 107.652 43.3911 108.334 42.8848C109.225 42.2384 109.556 41.1024 109.592 40.0375C109.627 37.7654 109.592 35.5122 109.608 33.2402H114.203C114.238 35.5122 114.203 37.7654 114.203 40.0375C114.272 41.7321 114.01 43.5146 112.945 44.8765C111.495 46.8327 108.981 47.6026 106.64 47.6716C102.832 47.7072 99.0055 47.6716 95.1978 47.7072C93.5388 49.7156 91.9132 51.7261 90.2709 53.7346C88.5428 53.7869 86.7938 53.7346 85.0657 53.7346C86.708 51.6906 88.3838 49.6989 90.0094 47.6549C87.6683 47.4624 85.3816 46.4142 83.8439 44.615C82.4987 43.0773 81.7832 41.0501 81.8522 39.0061C81.8522 36.8219 82.7958 34.69 84.367 33.1879H84.3481H84.3502ZM89.9215 34.8114C88.6809 35.0561 87.5804 35.8951 87.0386 37.0478C86.1662 38.9349 86.5135 41.5208 88.2792 42.7781C89.8336 43.9832 92.2438 43.843 93.6246 42.4455C95.5451 40.594 95.3526 36.96 93.1183 35.4557C92.2103 34.7925 91.022 34.5833 89.9215 34.8093V34.8114Z" fill="white"/>
<path d="M67.4598 50.3092C68.6816 50.0122 70.0269 50.8867 70.2193 52.1252C70.4809 53.3303 69.6084 54.6232 68.3846 54.8324C67.1795 55.0939 65.8698 54.2027 65.6774 52.9809C65.4326 51.7926 66.2715 50.5352 67.4598 50.3071V50.3092Z" fill="white"/>
<path d="M26.0603 60.46C27.7193 58.9223 30.0604 58.6608 32.2445 58.6964C34.3241 58.7319 36.5417 59.029 38.0795 60.5123C39.3012 61.6651 39.9142 63.3597 39.931 65.0376V75.1362C38.4288 75.1885 36.9079 75.1529 35.4057 75.1362C35.3702 72.1131 35.4057 69.0733 35.4057 66.0522C35.4057 64.9162 35.004 63.6233 33.9559 63.0291C32.8554 62.4182 31.4412 62.4182 30.2884 62.9413C29.1357 63.4999 28.6817 64.8639 28.6817 66.0522V75.1027C27.1795 75.1906 25.6586 75.1383 24.1564 75.1383C24.1209 71.8181 24.1564 68.5 24.1564 65.1798C24.1397 63.4329 24.7673 61.6504 26.0603 60.4454V60.4621V60.46Z" fill="white"/>
<path d="M66.6566 59.1324C69.0667 58.4148 71.7739 58.5027 74.0292 59.6575C76.1087 60.6701 77.6276 62.4358 78.1172 64.689C78.5712 66.8209 78.431 69.1453 77.3828 71.0846C76.2656 73.2521 74.1338 74.84 71.776 75.3819C69.7152 75.8714 67.5311 75.5743 65.644 74.6475C65.6084 76.815 65.644 78.9803 65.644 81.1477C64.1418 81.1833 62.6397 81.1833 61.1543 81.1477V67.5197C61.1543 66.0698 61.3112 64.6012 61.8175 63.2392C62.5853 61.0906 64.5247 59.7621 66.6733 59.1345H66.6566V59.1324ZM69.188 62.5928C67.9474 62.7329 66.8302 63.5196 66.2193 64.6012C65.1356 66.5929 65.485 69.4925 67.4411 70.821C68.96 71.9215 71.232 71.6935 72.5228 70.3315C74.0961 68.7059 74.1652 65.9108 72.8367 64.1116C71.9977 63.0112 70.5479 62.4003 69.1859 62.5907L69.188 62.5928Z" fill="white"/>
<path d="M83.5119 60.7218C85.4513 59.0962 88.0706 58.4853 90.6042 58.7468C92.3866 58.9393 94.1838 59.184 95.7047 60.1799C95.0583 61.3159 94.4118 62.4331 93.7653 63.5691C92.508 62.9917 91.1439 62.4854 89.7485 62.6256C88.2631 62.7657 86.9179 63.7972 86.3781 65.1759C85.9241 66.3474 85.9241 67.6738 86.3613 68.8454C86.9032 70.2953 88.3363 71.3622 89.8719 71.448C91.2172 71.5359 92.5268 71.0986 93.7151 70.4877C94.4495 71.5882 95.0604 72.7598 95.7068 73.9125C94.1879 74.8728 92.4055 75.3791 90.6062 75.5548C87.4806 75.8331 84.2295 74.5234 82.2734 72.0422C81.0327 70.4877 80.4386 68.4605 80.5787 66.4876C80.6833 64.27 81.8194 62.1381 83.514 60.7218H83.5119Z" fill="white"/>
<path d="M103.65 58.7992C105.799 58.4666 108.069 58.6067 109.939 59.7072C111.931 60.8265 113.45 63.0085 113.973 65.2283C114.462 67.3078 114.201 69.5966 113.117 71.4481C111.929 73.5444 109.816 74.7851 107.494 75.3437C105.084 75.9211 102.445 75.5717 100.332 74.2788C98.3239 73.0905 96.803 71.0464 96.3678 68.7409C96.0184 66.8894 96.2276 64.9145 97.1021 63.2366C98.3595 60.7386 100.91 59.2344 103.653 58.8159V58.7992H103.65ZM104.228 62.6613C102.987 62.9583 101.887 63.8496 101.38 65.0191C100.577 66.9229 100.962 69.4564 102.726 70.7138C104.299 71.9189 106.743 71.7452 108.14 70.3289C110.027 68.4773 109.851 64.8768 107.634 63.3224C106.655 62.6236 105.397 62.3788 104.228 62.6592V62.6613Z" fill="white"/>
<path d="M42.6387 59.1486C44.1408 59.1319 45.6618 59.1486 47.1639 59.1486C47.1995 62.2073 47.1639 65.0547 47.1807 68.1112C47.1974 69.2472 47.6179 70.5046 48.6828 71.0632C49.8188 71.6574 51.2686 71.6574 52.4214 71.0632C53.5051 70.469 53.9068 69.1405 53.9068 67.9711V59.1653C55.4257 59.1298 56.9466 59.1298 58.4655 59.1653C58.4488 62.519 58.4655 65.6467 58.4655 69.0025C58.4655 70.8017 57.75 72.6365 56.3525 73.8081C54.4654 75.3813 51.8628 75.7474 49.4883 75.5717C47.3229 75.396 45.0341 74.5403 43.7768 72.672C42.8332 71.3624 42.624 69.6845 42.6763 68.1112V59.1653L42.6408 59.1486H42.6387Z" fill="white"/>
<path d="M9.38222 0.300444C9.59327 0.175613 9.80432 0.0528945 10.0344 0C10.4396 0.105789 10.7921 0.370265 11.1614 0.564917C13.9811 2.20888 16.8177 3.85072 19.6374 5.49469C19.8674 5.61952 20.0953 5.8311 20.0595 6.1125C20.0595 9.41735 20.0595 12.7032 20.0764 16.008C20.0595 16.2894 20.1122 16.6787 19.8294 16.8374C19.4938 17.0849 19.1245 16.8014 18.8079 16.6597C18.2085 16.3233 17.5754 16.0419 16.976 15.6695C16.7459 15.5637 16.6953 15.3161 16.6953 15.1046C16.6784 12.6481 16.7121 10.1917 16.6784 7.73742C16.4842 7.47294 16.1317 7.36716 15.8679 7.18943C13.9115 6.07653 11.9908 4.91073 10.0344 3.79783C7.93649 4.9996 5.84072 6.23521 3.74284 7.4539C3.60143 7.55969 3.3545 7.64855 3.39038 7.87706C3.39038 10.2277 3.39038 12.5762 3.40726 14.9459C4.6757 15.7055 5.96313 16.429 7.23157 17.1717C7.46162 17.3134 7.7782 17.4721 7.74232 17.7895C7.75921 18.6549 7.75921 19.5202 7.74232 20.3877C7.7782 20.8637 7.15981 21.1303 6.80946 20.8299C4.69469 19.6112 2.57993 18.3734 0.465161 17.1378C0.201343 16.9961 -0.0455906 16.7676 0.00717308 16.4312V6.67952C0.0240575 6.29022 -0.098355 5.74224 0.342749 5.53066C3.33972 3.76398 6.37047 2.03115 9.36533 0.264473L9.38222 0.300444ZM21.7184 11.7849C21.7711 11.3787 22.3178 11.22 22.6343 11.4675C24.7491 12.6862 26.8639 13.924 28.9786 15.1596C29.2425 15.3013 29.4894 15.5298 29.4366 15.8663C29.4366 19.3107 29.4725 22.7573 29.4366 26.2018C29.4894 26.5192 29.2066 26.7329 28.9618 26.8725C25.9479 28.6223 22.9361 30.372 19.9392 32.1387C19.6754 32.2974 19.3567 32.4201 19.0928 32.2276C16.1317 30.5138 13.1896 28.7831 10.2285 27.0862C9.91196 26.8747 9.38222 26.716 9.4181 26.2378V16.0419C9.34845 15.5827 9.89297 15.2294 10.2813 15.4939C11.039 15.8832 11.7798 16.2534 12.5185 16.6787C12.8878 16.8734 12.7485 17.3325 12.7823 17.6689V24.6658C15.0026 25.9564 17.206 27.264 19.4432 28.5355C21.6466 27.2449 23.831 25.9564 26.0513 24.7018C26.0872 22.2813 26.0513 19.8418 26.0513 17.4213C24.6942 16.6089 23.3034 15.8493 21.9463 15.0178C21.6297 14.8591 21.6994 14.4529 21.6825 14.1525C21.6994 13.376 21.6466 12.5974 21.7184 11.8378V11.7849ZM17.1532 18.0032C17.4698 17.9503 17.7526 18.1809 18.0333 18.3036C18.6327 18.64 19.2659 18.9214 19.8484 19.2938C20.0953 19.4356 20.0257 19.7529 20.0595 19.9836C20.0595 20.813 20.0764 21.6614 20.0426 22.4929C20.0426 22.8822 19.5487 23.1107 19.2153 22.916C18.4576 22.5458 17.7168 22.1565 16.9781 21.7312C16.6615 21.5725 16.6974 21.1832 16.6974 20.8828C16.6974 20.1063 16.6805 19.3107 16.6974 18.5321C16.6974 18.2677 16.8915 18.037 17.1554 17.9841V18.0011L17.1532 18.0032Z" fill="white"/>
</svg>
