<svg width="53" height="53" viewBox="0 0 53 53" fill="none" xmlns="http://www.w3.org/2000/svg">
<g clip-path="url(#clip0_152_445)">
<mask id="mask0_152_445" style="mask-type:luminance" maskUnits="userSpaceOnUse" x="0" y="0" width="53" height="53">
<path d="M52.998 0.0419945L52.998 52.8774L0.409532 52.8774L0.409534 0.0419922L52.998 0.0419945Z" fill="white"/>
</mask>
<g mask="url(#mask0_152_445)">
<path d="M2.55082 52.8551C4.45732 52.8551 6.36381 52.8551 8.2703 52.8551C10.5612 52.8551 12.8534 52.8551 15.1443 52.8551C17.0701 52.8551 18.9946 52.8551 20.9205 52.8551C21.7293 52.8551 22.538 52.8551 23.3468 52.8551C23.3533 52.8551 23.361 52.8551 23.3675 52.8551C24.4549 52.8551 25.5423 52.8551 26.6284 52.8551C28.7877 52.8551 30.947 52.8551 33.1063 52.8551C35.2205 52.8551 37.3359 52.8551 39.4501 52.8551C40.4034 52.8551 41.3566 52.8551 42.3086 52.8551C42.5059 52.8551 42.702 52.8551 42.8981 52.8551C44.8845 52.8551 46.871 52.8551 48.8575 52.8551C50.239 52.8551 51.6205 52.8551 53.002 52.8551C53.002 52.6996 53.002 52.5428 53.002 52.386C53.002 50.3915 53.002 48.3957 53.002 46.4012C53.002 44.973 53.002 43.5436 53.002 42.1154C53.002 42.004 53.002 41.8912 53.002 41.7798C53.002 40.1481 53.002 38.5178 53.002 36.8875C53.002 34.6455 53.002 32.4021 53.002 30.1601C53.002 29.0702 53.002 27.9803 53.002 26.8904C52.9271 26.8904 52.8523 26.8904 52.7775 26.8904C51.1483 26.8904 49.5192 26.8904 47.8887 26.8904C45.6559 26.8904 43.4218 26.8904 41.1889 26.8904C40.0641 26.8904 38.9393 26.8904 37.8145 26.8904L37.8132 26.8904C37.8119 26.8904 37.8106 26.8904 37.8106 26.8904C37.8029 26.8904 37.7952 26.8904 37.7887 26.8878C37.7861 26.8878 37.7861 26.8878 37.7848 26.8878C37.7784 26.8865 37.7732 26.8839 37.7681 26.8813C37.7616 26.88 37.7565 26.8774 37.7513 26.8735C37.7513 26.8735 37.75 26.8722 37.7487 26.8722C37.7436 26.8683 37.7371 26.8631 37.7319 26.858C37.7307 26.8567 37.7307 26.8567 37.7294 26.8554C37.7294 26.8554 37.7294 26.8554 37.7281 26.8554C37.7203 26.8476 37.7126 26.8398 37.7049 26.8308C37.2366 26.3616 36.7684 25.8925 36.3001 25.422C35.2514 24.3697 34.2014 23.3161 33.1515 22.2637C31.7184 20.8265 30.2866 19.3893 28.8535 17.9521C27.2359 16.3295 25.6184 14.7069 24.0008 13.0844C22.3974 11.4748 20.7941 9.8665 19.1907 8.2582C17.8002 6.86244 16.4097 5.46668 15.0178 4.07092C14.0375 3.08857 13.0572 2.10493 12.0768 1.12129C11.735 0.777854 11.3932 0.435718 11.0514 0.0922856C11.0011 0.142829 10.9507 0.192075 10.9004 0.242618C9.75113 1.39344 8.60181 2.54426 7.4525 3.69508C5.87235 5.27876 4.29221 6.86114 2.71206 8.44481C1.94327 9.21333 1.17577 9.98313 0.408275 10.7516C0.858455 11.2039 1.30864 11.6562 1.7601 12.1098C2.8101 13.1647 3.86137 14.2197 4.91265 15.2759C6.34575 16.7144 7.77755 18.1542 9.21065 19.5928C10.8269 21.2166 12.4445 22.8392 14.0607 24.463C15.6628 26.0726 17.2649 27.6822 18.8669 29.2905C20.2562 30.6863 21.6467 32.082 23.036 33.4778C24.015 34.4614 24.994 35.4451 25.9731 36.4287C26.3433 36.8007 26.7135 37.1726 27.085 37.5445C27.085 37.5445 27.085 37.5445 27.0863 37.5458C27.0863 37.5471 27.0876 37.5484 27.0889 37.5497C27.1263 37.5912 27.1276 37.6391 27.1082 37.6793C27.0927 37.7195 27.0592 37.7506 27.005 37.7532C27.0037 37.7532 27.0011 37.7532 26.9999 37.7532L26.9986 37.7532C26.5742 37.7532 26.1485 37.7532 25.7241 37.7532C24.1595 37.7532 22.5948 37.7532 21.0301 37.7532C18.8373 37.7532 16.6457 37.7532 14.4529 37.7532C12.1942 37.7532 9.93429 37.7532 7.67436 37.7532C5.90847 37.7532 4.14128 37.7532 2.37539 37.7532C1.70335 37.7532 1.03001 37.7532 0.357966 37.7532C0.357966 37.8245 0.357966 37.8957 0.357966 37.9683C0.357966 39.5987 0.357966 41.229 0.357966 42.8593C0.357965 45.1013 0.357965 47.3434 0.357965 49.5867C0.357965 50.6753 0.357965 51.7652 0.357965 52.8551C1.08935 52.8551 1.81944 52.8551 2.55082 52.8551Z" fill="#FE572A"/>
</g>
<mask id="mask1_152_445" style="mask-type:luminance" maskUnits="userSpaceOnUse" x="37" y="0" width="16" height="27">
<path d="M52.998 0.0419945L52.998 26.542L37.808 26.542L37.808 0.0419938L52.998 0.0419945Z" fill="white"/>
</mask>
<g mask="url(#mask1_152_445)">
<path d="M38.5504 25.8564C39.7526 24.6512 40.9535 23.4459 42.1557 22.242C43.7655 20.6285 45.3753 19.0137 46.9864 17.4002C48.3976 15.985 49.8088 14.5698 51.2199 13.1559C51.8133 12.5611 52.4066 11.9662 53 11.3714C53 11.0305 53 10.6897 53 10.3488C53 8.25326 53 6.15768 53 4.06209C53 2.72206 53 1.38203 53 0.0419945C52.9252 0.0419945 52.8504 0.0419945 52.7756 0.0419945C51.1464 0.0419944 49.5159 0.0419944 47.8868 0.0419943C45.6539 0.0419942 43.4198 0.0419941 41.187 0.041994C40.1034 0.0419939 39.0186 0.0419939 37.9351 0.0419938C37.9351 0.417825 37.9351 0.793657 37.9351 1.17078C37.9351 2.73502 37.9351 4.30055 37.9351 5.86608C37.9351 8.06664 37.9351 10.2685 37.9351 12.4691C37.9351 14.7409 37.9351 17.0114 37.9351 19.2833C37.9351 21.06 37.9351 22.8381 37.9351 24.6149C37.9351 25.2344 37.9351 25.8538 37.9351 26.4733C38.1402 26.2673 38.3453 26.0612 38.5504 25.8564Z" fill="#FE572A"/>
</g>
</g>
<defs>
<clipPath id="clip0_152_445">
<rect width="53" height="53" fill="white" transform="translate(53 2.3167e-06) rotate(90)"/>
</clipPath>
</defs>
</svg>
