<svg width="110" height="131" viewBox="0 0 110 131" fill="none" xmlns="http://www.w3.org/2000/svg">
<path d="M72.6294 26H37.3714C32.6761 26.0039 28.18 27.8711 24.8594 31.1914C21.543 34.5078 19.6758 39.0078 19.6719 43.6994V64.5784C19.6797 69.2737 21.5469 73.7698 24.8633 77.0864C28.1797 80.4067 32.6797 82.2739 37.3713 82.2817H54.0003L65.0003 93.2817C65.7151 93.9965 66.7933 94.2114 67.7269 93.8247C68.6644 93.438 69.2738 92.5239 69.2699 91.5122V82.2817H72.6293C77.3207 82.2739 81.8207 80.4067 85.1373 77.0864C88.4537 73.77 90.3209 69.2739 90.3287 64.5784V43.6604C90.313 38.9729 88.442 34.4846 85.1256 31.1764C81.8092 27.8678 77.3168 26.0039 72.6294 26ZM85.3284 64.621C85.3206 71.6288 79.6409 77.309 72.6294 77.32H66.77C66.1059 77.3161 65.4692 77.5778 65.0005 78.0505C64.5317 78.5192 64.2661 79.156 64.27 79.82V85.5505L56.77 77.9997C56.2973 77.5348 55.6606 77.277 55.0005 77.2809H37.3715C30.3598 77.2692 24.6805 71.5895 24.6725 64.5779V43.6599C24.6998 36.6638 30.3756 31.0039 37.3715 30.9999H72.6295C79.6412 31.0038 85.3245 36.6874 85.3285 43.6989L85.3284 64.621Z" fill="#FE572A"/>
<path d="M74.0104 41.4347C73.0261 40.7628 71.7018 40.88 70.8502 41.7159L61.4596 50.8956L49.3506 42.1847C48.7569 41.755 48.0029 41.6105 47.292 41.7824C46.5772 41.9581 45.9795 42.4386 45.6514 43.0949L35.2294 64.0949C34.7451 65.1457 35.0458 66.3957 35.9599 67.1105C36.8701 67.8214 38.1552 67.8175 39.0615 67.0948L49.7725 58.1846L62.0105 67.0244C62.6199 67.4737 63.4011 67.6221 64.1316 67.4307C64.8621 67.2354 65.4675 66.7159 65.7722 66.0245L74.9011 44.5125C75.3855 43.407 75.0104 42.1144 74.0104 41.4347ZM62.3624 61.1847L51.1324 53.0128C50.2106 52.3409 48.9449 52.3799 48.0699 53.1143L45.0113 55.6846L48.8629 47.9463L60.1909 56.1846C61.1792 56.8956 62.5307 56.794 63.4018 55.9463L65.4018 54.0166L62.3624 61.1847Z" fill="#FE572A"/>
</svg>
