<svg width="22" height="22" viewBox="0 0 22 22" fill="none" xmlns="http://www.w3.org/2000/svg">
<path d="M18.2821 6.56996L11.0865 13.014L3.76051 6.55001V17.2452H11.9289V19.0604H1.94545C1.94545 19.0604 1.94531 18.6541 1.94531 18.1528V3.63123C1.94531 3.12998 1.94553 3.30709 1.94545 2.72363H20.0973V10.892H18.2821V6.56996ZM17.8292 4.53883H4.22471L11.0775 10.5852L17.8292 4.53883Z" fill="white"/>
<path d="M20.2266 12.8364L18.2813 12.8364L18.2813 15.1694L20.2266 15.1694L20.2266 12.8364ZM20.0322 17.1147L15.9121 12.9956L14.5771 14.3306L17.3604 17.1147L14.1973 17.1147L14.1973 19.0601L20.0322 19.0601L20.0322 17.1147Z" fill="#FE572A"/>
</svg>
