<svg width="117" height="26" viewBox="0 0 117 26" fill="none" xmlns="http://www.w3.org/2000/svg">
<path d="M42.8892 8.48551H40.2051V21.3002H42.8892V16.105H48.777V21.3002H51.3746V8.48551H48.777V13.6806H42.8892V8.48551ZM63.4966 15.8453C63.4966 17.9233 62.4575 19.0489 60.5527 19.0489C58.6478 19.0489 57.6088 17.9233 57.6088 15.7587V8.48551H55.0112V15.8453C55.0112 19.4819 57.0027 21.5599 60.5527 21.5599C64.1027 21.5599 66.0941 19.4819 66.0941 15.7587V8.48551H63.4966V15.8453ZM88.6064 8.48551L85.6624 17.3172L82.8051 8.48551H80.0344L84.5368 21.3002H86.7015L89.6454 12.9014L92.5027 21.3002H94.7539L99.1698 8.48551H96.4856L93.6283 17.3172L90.6844 8.48551H88.6064ZM108.608 13.4209H103.845V10.8233H110.772V8.48551H101.248V21.3002H111.032V18.9624H103.845V15.7587H108.608V13.4209ZM114.149 8.48551H116.747V21.3002H114.149V8.48551ZM77.0905 18.616L78.2161 21.3002H80.9868L75.3588 8.48551L75.2722 8.39893H73.021L67.3929 21.3002H70.0771L71.2027 18.7892L71.2893 18.616H77.0905ZM74.1466 11.6892L75.9649 16.0184L76.0515 16.2782H72.0685L72.1551 16.0184L74.1466 11.6892Z" fill="white"/>
<path d="M14.5764 20.0012C14.5764 20.0012 14.663 19.9147 14.5764 19.9147C10.5935 11.2561 5.1386 4.58903 5.1386 4.58903C5.1386 4.58903 2.19469 7.35976 2.36786 10.2171C2.45445 12.3817 4.09957 13.5939 4.09957 13.5939C6.69714 16.1049 12.9313 19.3086 14.4032 20.0012H14.5764ZM13.5374 22.1659C13.5374 22.0793 13.3642 22.0793 13.3642 22.0793L2.97396 22.4256C4.09957 24.4171 6.00445 25.9756 7.99592 25.5427C9.38128 25.1964 12.4984 23.0317 13.4508 22.339C13.624 22.1659 13.5374 22.1659 13.5374 22.1659ZM13.7106 21.2134C13.7971 21.1269 13.7106 21.0403 13.7106 21.0403C9.12153 17.9232 0.289811 13.2476 0.289811 13.2476C-0.489458 15.7586 0.549567 17.75 0.549567 17.75C1.67518 20.1744 3.83981 20.8671 3.83981 20.8671C4.79225 21.3 5.83128 21.3 5.83128 21.3H13.624C13.7106 21.3 13.7106 21.2134 13.7106 21.2134ZM14.4032 0.0865855C13.9703 0.0865855 12.7581 0.432927 12.7581 0.432927C9.98738 1.12561 9.38128 3.63659 9.38128 3.63659C8.86177 5.19513 9.38128 6.92684 9.38128 6.92684C10.3337 10.9964 14.8362 17.75 15.7886 19.1354L15.8752 19.222C15.9618 19.222 15.9618 19.1354 15.9618 19.1354C17.5203 3.98293 14.4032 0.0865855 14.4032 0.0865855ZM17.8667 19.1354C17.9532 19.1354 18.0398 19.0488 18.0398 19.0488C19.0789 17.5768 23.4947 10.9098 24.4472 6.84025C24.4472 6.84025 24.9667 4.84879 24.4472 3.55C24.4472 3.55 23.7545 1.03903 20.9837 0.346342C20.9837 0.346342 20.2045 0.173171 19.3386 0C19.3386 0 16.2215 3.98293 17.7801 18.9622C17.7801 19.1354 17.8667 19.1354 17.8667 19.1354ZM20.2911 22.0793C20.2911 22.0793 20.2045 22.0793 20.2045 22.1659V22.339C21.2435 23.0317 24.1874 25.1964 25.6594 25.5427C25.6594 25.5427 28.3435 26.4952 30.6813 22.4256L20.2911 22.0793ZM33.5386 13.161C33.5386 13.161 24.7069 17.9232 20.1179 21.0403C20.1179 21.0403 20.0313 21.1269 20.0313 21.2134C20.0313 21.2134 20.0313 21.3 20.1179 21.3H28.0837C28.0837 21.3 28.863 21.3 29.902 20.8671C29.902 20.8671 32.0667 20.1744 33.2789 17.6634C33.2789 17.5768 34.3179 15.5854 33.5386 13.161ZM19.252 20.0012C19.252 20.0012 19.3386 20.0878 19.4252 20.0012C20.8972 19.222 27.1313 16.1049 29.7289 13.5939C29.7289 13.5939 31.374 12.2951 31.4606 10.2171C31.6337 7.27318 28.6898 4.58903 28.6898 4.58903C28.6898 4.58903 23.235 11.0829 19.252 19.8281C19.252 19.8281 19.1654 19.9147 19.252 20.0012Z" fill="white"/>
</svg>
