<svg width="13" height="21" viewBox="0 0 13 21" fill="none" xmlns="http://www.w3.org/2000/svg">
<g clip-path="url(#clip0_152_428)">
<path fill-rule="evenodd" clip-rule="evenodd" d="M1.80944e-06 20.6966H10.3784V19.036L12.1576 17.3755V1.73141H10.3784V1.77819V-0.000975459L1.77916 -0.000976562L0 -0.000974552L1.55539e-07 1.77819L1.6539e-06 18.9174L1.66427e-06 19.036L1.80944e-06 20.6966ZM0.127084 18.9174H10.3784V1.77819H1.77916V17.3755L0.127084 18.9174Z" fill="white"/>
<path d="M6.07907 17.7492C6.48193 17.7492 6.80852 17.4226 6.80852 17.0197C6.80852 16.6169 6.48193 16.2903 6.07907 16.2903C5.6762 16.2903 5.34961 16.6169 5.34961 17.0197C5.34961 17.4226 5.6762 17.7492 6.07907 17.7492Z" fill="#FE572A"/>
</g>
<defs>
<clipPath id="clip0_152_428">
<rect width="12.1576" height="20.9111" fill="white"/>
</clipPath>
</defs>
</svg>
