<svg width="174" height="52" viewBox="0 0 174 52" fill="none" xmlns="http://www.w3.org/2000/svg">
<g clip-path="url(#clip0_152_599)">
<path fill-rule="evenodd" clip-rule="evenodd" d="M134.449 7.2959L147.566 6.51167C140.638 6.28003 136.528 6.28003 135.235 6.4185L133.295 6.83433C133.064 7.06426 133.48 7.20359 134.449 7.2959Z" fill="white"/>
<path fill-rule="evenodd" clip-rule="evenodd" d="M131.54 10.576L153.109 10.1127L132.234 9.37375C129.461 9.18955 127.937 9.37375 127.707 9.8819C127.291 10.576 128.63 10.8059 131.54 10.576Z" fill="white"/>
<path fill-rule="evenodd" clip-rule="evenodd" d="M123.92 14.7324L156.482 13.5777L127.152 13.2088C124.936 13.2088 123.781 13.4388 123.781 13.9008L123.92 14.7324Z" fill="white"/>
<path fill-rule="evenodd" clip-rule="evenodd" d="M126.091 19.0723L158.79 17.5953L123.365 17.0398C122.441 17.1338 121.935 17.3637 121.841 17.8261C121.704 18.8416 123.089 19.2117 126.091 19.0723Z" fill="white"/>
<path fill-rule="evenodd" clip-rule="evenodd" d="M121.378 22.8145L160.082 21.844L124.289 20.8281C121.978 20.8281 120.778 21.1983 120.593 22.0756C120.548 22.4458 120.824 22.7677 121.378 22.8145Z" fill="white"/>
<path fill-rule="evenodd" clip-rule="evenodd" d="M121.057 26.7402L133.296 26.602L135.004 24.6618H122.765C120.918 24.6618 120.086 25.0768 120.317 25.9084C120.362 26.3721 120.594 26.6945 121.057 26.7402Z" fill="white"/>
<path fill-rule="evenodd" clip-rule="evenodd" d="M123.78 30.8506L131.539 30.296L132.555 28.5423L123.457 28.6803C121.703 28.6803 120.824 29.0498 120.824 29.7419C120.824 30.296 121.056 30.6201 121.47 30.6664L123.78 30.8506Z" fill="white"/>
<path fill-rule="evenodd" clip-rule="evenodd" d="M124.981 34.5468L144.702 33.7617L143.317 32.3765L124.289 32.5144L122.303 32.7443C122.07 32.9288 121.978 33.2069 122.07 33.6223C122.21 34.4548 123.226 34.777 124.981 34.5468Z" fill="white"/>
<path fill-rule="evenodd" clip-rule="evenodd" d="M147.337 36.9946L127.708 36.8549C125.305 36.8549 124.243 37.1327 124.291 37.8247C124.521 38.703 125.86 38.9345 128.4 38.703L148.537 38.2413L147.337 36.9946Z" fill="white"/>
<path fill-rule="evenodd" clip-rule="evenodd" d="M149.783 41.0122L128.676 40.8268C128.215 40.8268 127.984 41.0122 127.984 41.3807C127.984 42.0748 129.461 42.397 132.371 42.2124L151.861 41.52L149.783 41.0122Z" fill="white"/>
<path fill-rule="evenodd" clip-rule="evenodd" d="M136.482 45.0771L148.029 44.707L135.928 44.2446C134.312 44.0147 133.48 44.1523 133.48 44.707L136.482 45.0771Z" fill="white"/>
<path fill-rule="evenodd" clip-rule="evenodd" d="M169.319 1.79958C165.117 3.60139 156.943 8.35763 144.842 16.2098C151.077 12.7459 156.804 10.0658 162.115 8.1277L171.583 4.98565L173.43 5.12454C173.8 5.35575 173.246 5.67928 171.952 6.0481C169.736 6.74173 165.625 8.44951 159.621 11.2202C152.693 14.3635 148.72 16.5795 147.566 17.9637L155.557 18.1496C154.401 19.5816 153.017 20.3674 151.399 20.4597L149.875 20.5053C151.632 23.3692 154.496 24.9844 158.42 25.216L161.099 25.3537L161.238 27.4341L150.014 28.5419L160.867 29.234C161.008 30.8503 160.962 31.6818 160.73 31.6818H149.784L159.851 33.1598L159.251 35.7464L150.153 36.4399L158.235 37.316L156.342 39.9026L151.399 40.5495L155.234 41.3804L151.03 44.29C148.028 41.2881 145.765 38.7482 144.333 36.8541L141.378 32.7434L137.313 33.6214C140.869 31.082 142.764 29.1416 143.085 27.9862C142.995 25.7699 142.855 24.2919 142.624 23.4614L141.146 24.9844C140.916 22.7674 140.546 21.3834 140.177 20.8278L139.622 22.5373L137.176 24.6614L138.929 24.5238C137.868 30.4359 135.466 34.2215 131.678 35.7464L129.461 33.4376L130.986 32.0519L128.676 32.7434L128.215 32.0519C130.478 28.3119 132.233 25.6781 133.618 24.1539L140.314 18.0565C144.103 14.9161 147.566 12.2835 150.846 10.2056C159.389 5.03223 165.58 1.75342 169.319 0.367874C170.798 -0.186432 171.397 -0.0945473 171.029 0.505486L169.319 1.79958Z" fill="white"/>
<path fill-rule="evenodd" clip-rule="evenodd" d="M115.521 41.2281V48.9422H114.081V42.7384C113.941 42.785 113.848 42.7384 113.824 42.6218L113.941 42.273L115.521 41.2281ZM102.329 47.6648H94.4205V46.31C94.6406 45.9219 94.9855 45.7129 95.4898 45.7129H101.299C101.856 45.7129 102.159 45.8287 102.275 46.1074L102.344 46.7588L102.329 47.6648ZM108.736 40.9259C109.292 40.9259 109.549 41.1575 109.549 41.5758C109.549 41.9256 109.292 42.1106 108.736 42.1106C108.317 42.1106 108.084 41.9256 108.084 41.5758C108.084 41.1575 108.317 40.9259 108.736 40.9259ZM106.854 40.9259C107.432 40.9259 107.689 41.1575 107.689 41.5758C107.689 41.9256 107.432 42.1106 106.854 42.1106C106.41 42.1106 106.179 41.9256 106.179 41.5758C106.179 41.1575 106.41 40.9259 106.854 40.9259ZM85.5897 49.4075C86.1252 49.4075 86.4042 49.6397 86.4042 50.0584C86.4042 50.4063 86.1252 50.5918 85.5897 50.5918C85.126 50.5918 84.8926 50.4063 84.8926 50.0584C84.8926 49.6397 85.126 49.4075 85.5897 49.4075ZM83.6849 49.4075C84.2191 49.4075 84.4981 49.6397 84.4981 50.0584C84.4981 50.4063 84.2191 50.5918 83.6849 50.5918C83.2194 50.5918 82.9874 50.4063 82.9874 50.0584C82.9874 49.6397 83.2194 49.4075 83.6849 49.4075ZM80.8967 41.0416C81.4766 41.0416 81.7553 41.2739 81.7553 41.6922C81.7553 42.0409 81.4766 42.2268 80.8967 42.2268C80.4774 42.2268 80.2449 42.0409 80.2449 41.6922C80.2449 41.2739 80.4774 41.0416 80.8967 41.0416ZM79.0829 41.0416C79.6645 41.0416 79.9201 41.2739 79.9201 41.6922C79.9201 42.0409 79.6645 42.2268 79.0829 42.2268C78.6418 42.2268 78.4094 42.0409 78.4094 41.6922C78.4094 41.2739 78.6418 41.0416 79.0829 41.0416ZM79.4551 47.6648H80.9424V45.8287L79.8034 46.409C79.4551 46.6421 79.3385 47.0834 79.4551 47.6648ZM108.364 44.9928C107.737 45.1786 107.432 45.4099 107.432 45.7591H108.364V44.9928ZM82.3369 41.8777V47.6648H86.5889V46.0381C86.1252 45.9224 86.0777 45.6885 86.4726 45.3402L87.9381 44.3189V48.9422H78.0371L78.2234 46.7588C78.2234 46.3394 78.6418 45.8052 79.5013 45.2241C80.0124 44.8756 80.4774 44.597 80.8967 44.4107L80.9655 43.8538C80.6176 43.7376 80.5005 43.6209 80.6176 43.5047L82.3369 41.8777ZM106.41 46.7352V45.5266C106.41 44.8987 107.225 44.2483 108.828 43.5979L109.712 43.1563V47.6648H111.617V42.7384L111.338 42.6218C111.29 42.5059 111.338 42.3905 111.453 42.273C111.64 42.1106 112.152 41.7623 113.011 41.181V48.9422H91.1677C91.1677 49.6631 90.8882 50.2439 90.307 50.6389L89.0758 51.0342C88.6813 51.0342 88.2851 50.8243 87.8671 50.4534C87.6355 50.2439 87.6812 50.1272 87.9381 50.1046C88.518 50.2901 88.9822 50.2213 89.3309 49.8956C89.6801 49.6631 89.8429 49.3614 89.8429 48.9422L89.9126 45.1317L89.5403 44.9928C89.4471 44.8987 89.4937 44.7825 89.6801 44.6671L91.1908 43.5521L91.2366 47.6648H92.9798V42.8541C92.5614 42.6687 92.5614 42.3905 92.9798 42.0875L94.4205 41.0648V44.9291C94.8004 44.5586 95.3526 44.3641 96.0458 44.3641H101.345C101.925 44.3641 102.46 44.551 102.971 44.9458C103.483 45.3638 103.739 45.9441 103.739 46.689L103.724 47.6648H108.364V46.7352H106.41Z" fill="white"/>
<path fill-rule="evenodd" clip-rule="evenodd" d="M36.3967 26.0333L39.826 17.6255L43.2561 26.0333H36.3967ZM47.2084 35.7227H52.5912L41.8256 11.6273H39.826L29.3164 35.7227H32.4438L35.4975 28.2375H44.1548L47.2084 35.7227Z" fill="white"/>
<path fill-rule="evenodd" clip-rule="evenodd" d="M76.0795 26.0333L79.51 17.6255L82.9392 26.0333H76.0795ZM86.8912 35.7227H92.2744L81.5088 11.6273H79.51L69 35.7227H72.1271L75.1807 28.2375H83.8389L86.8912 35.7227Z" fill="white"/>
<path fill-rule="evenodd" clip-rule="evenodd" d="M51.7852 11.6273H70.0225V14.5496H63.5114V35.7227H58.3338V14.5496H51.7852V11.6273Z" fill="white"/>
<path fill-rule="evenodd" clip-rule="evenodd" d="M13.5598 34.6454C8.58684 34.6454 4.55602 29.8741 4.55602 23.9894C4.55602 18.1048 8.58684 13.3332 13.5598 13.3332C18.5326 13.3332 22.5633 18.1048 22.5633 23.9894C22.5633 29.8741 18.5326 34.6454 13.5598 34.6454ZM27.1192 23.9894C27.1192 16.8265 21.0495 11.0189 13.5598 11.0189C6.07021 11.0189 0 16.8265 0 23.9894C0 31.1519 6.07021 36.9597 13.5598 36.9597C14.2355 36.9597 14.8948 36.897 15.5444 36.8058L22.756 43.3096L26.6005 40.2338L18.9821 35.8737C23.7703 33.8723 27.1192 29.3074 27.1192 23.9894Z" fill="white"/>
<path fill-rule="evenodd" clip-rule="evenodd" d="M100.525 23.0086V12.9085H105.959C105.959 12.9085 108.88 14.5497 108.88 17.5746C108.88 20.599 107.599 23.0086 105.753 23.0086C103.907 23.0086 100.525 23.0086 100.525 23.0086ZM106.472 24.4958C108.983 23.9832 112.598 21.624 112.598 16.8818C112.598 12.1401 106.998 11.6273 106.998 11.6273H100.525H98.5397H96.3203V35.7227H100.525V25.0077H101.96L108.88 35.4658H114.828L106.472 24.4958Z" fill="white"/>
<path d="M30.1585 45.0827H32.8242L31.5132 41.4149H31.4912L30.1585 45.0827ZM30.9404 40.467H32.0968L35.1699 48.332H34.0135L33.1547 45.9634H29.8278L28.9466 48.332H27.8672L30.9404 40.467Z" fill="white"/>
<path d="M35.9844 40.467H37.0302V48.332H35.9844V40.467Z" fill="white"/>
<path d="M42.0209 44.0917C43.0009 44.0917 43.8381 43.8378 43.8381 42.6929C43.8381 41.9214 43.4197 41.3483 42.4393 41.3483H39.8396V44.0917H42.0209ZM38.793 40.467H42.4945C43.9702 40.467 44.8843 41.2713 44.8843 42.5269C44.8843 43.4745 44.4664 44.2566 43.5189 44.5208V44.5434C44.4335 44.7191 44.6202 45.3914 44.6971 46.1623C44.7638 46.9327 44.7194 47.7923 45.16 48.332H43.9924C43.6949 48.0129 43.8603 47.1644 43.7061 46.3935C43.5954 45.6226 43.4086 44.9725 42.3953 44.9725H39.8396V48.332H38.793V40.467Z" fill="white"/>
<path d="M53.2457 48.332H52.1555L50.3592 41.7228H50.3378L48.5202 48.332H47.4296L45.4141 40.467H46.4821L48.0249 47.0102H48.0463L49.8092 40.467H50.9434L52.6841 47.0102H52.7063L54.3034 40.467H55.3497L53.2457 48.332Z" fill="white"/>
<path d="M57.4318 45.0827H60.0973L58.7861 41.4149H58.7639L57.4318 45.0827ZM58.2139 40.467H59.3703L62.4432 48.332H61.2867L60.4277 45.9634H57.101L56.2197 48.332H55.1406L58.2139 40.467Z" fill="white"/>
<path d="M65.6486 45.1156V48.332H64.6028V45.1156L61.5625 40.467H62.807L65.1644 44.2122L67.4667 40.467H68.6561L65.6486 45.1156Z" fill="white"/>
<path d="M74.0866 42.7692C73.9653 41.6456 73.2165 41.1605 72.1374 41.1605C71.2557 41.1605 70.3745 41.4807 70.3745 42.5046C70.3745 43.4743 71.6301 43.6176 72.8973 43.9039C74.1529 44.1902 75.4081 44.6312 75.4081 46.1728C75.4081 47.8472 73.7674 48.5195 72.3353 48.5195C70.5732 48.5195 69.0859 47.6601 69.0859 45.7438H70.0774C70.0774 47.0651 71.1788 47.6382 72.3682 47.6382C73.3157 47.6382 74.3623 47.3404 74.3623 46.2057C74.3623 45.1261 73.1067 44.9394 71.8506 44.6641C70.5946 44.3885 69.3283 44.0248 69.3283 42.582C69.3283 40.9849 70.7488 40.2797 72.181 40.2797C73.7896 40.2797 75.0123 41.04 75.0781 42.7692H74.0866Z" fill="white"/>
</g>
<defs>
<clipPath id="clip0_152_599">
<rect width="173.543" height="51.034" fill="white"/>
</clipPath>
</defs>
</svg>
