<svg width="20" height="21" viewBox="0 0 20 21" fill="none" xmlns="http://www.w3.org/2000/svg">
<g clip-path="url(#clip0_152_413)">
<path d="M5.20637 11.0742V13.3727H4.64648V11.0742H5.20637ZM6.72531 11.526C6.93922 11.526 7.10946 11.5959 7.23606 11.7356C7.36484 11.8731 7.42923 12.063 7.42923 12.3053V13.3727H6.87265V12.3806C6.87265 12.2584 6.84098 12.1634 6.77769 12.0957C6.71438 12.0281 6.62926 11.9942 6.52231 11.9942C6.41535 11.9942 6.33021 12.0281 6.26692 12.0957C6.20362 12.1634 6.17197 12.2584 6.17197 12.3806V13.3727H5.61211V11.5457H6.17197V11.788C6.22873 11.7072 6.30512 11.6439 6.40116 11.5981C6.49721 11.5501 6.60524 11.526 6.72531 11.526ZM8.56152 13.3988C8.40218 13.3988 8.2603 13.3716 8.13589 13.317C8.01146 13.2624 7.91325 13.1882 7.84122 13.0943C7.76917 12.9983 7.72879 12.8913 7.72008 12.7735H8.27339C8.27994 12.8368 8.30942 12.8881 8.3618 12.9274C8.41418 12.9666 8.47859 12.9863 8.55497 12.9863C8.62483 12.9863 8.6783 12.9732 8.7154 12.947C8.75469 12.9186 8.77433 12.8826 8.77433 12.839C8.77433 12.7866 8.74704 12.7484 8.69249 12.7244C8.63792 12.6982 8.54952 12.6698 8.42728 12.6392C8.29632 12.6087 8.18718 12.577 8.09987 12.5443C8.01256 12.5094 7.93725 12.4559 7.87396 12.3839C7.81065 12.3096 7.77901 12.2103 7.77901 12.0859C7.77901 11.9811 7.80739 11.8862 7.86413 11.8011C7.92306 11.7138 8.0082 11.645 8.11951 11.5948C8.23301 11.5446 8.36725 11.5195 8.52223 11.5195C8.75142 11.5195 8.9315 11.5762 9.06245 11.6898C9.19562 11.8033 9.272 11.9539 9.29165 12.1416H8.77433C8.76561 12.0783 8.73723 12.0281 8.68921 11.991C8.64337 11.9539 8.58225 11.9353 8.50585 11.9353C8.44037 11.9353 8.39018 11.9484 8.35525 11.9746C8.32032 11.9986 8.30287 12.0324 8.30287 12.0761C8.30287 12.1285 8.33015 12.1678 8.38473 12.194C8.44147 12.2202 8.52878 12.2464 8.64664 12.2725C8.78197 12.3075 8.89221 12.3424 8.97733 12.3773C9.06245 12.41 9.13667 12.4646 9.19998 12.541C9.26545 12.6152 9.29929 12.7156 9.30148 12.8422C9.30148 12.9492 9.27091 13.0452 9.20979 13.1304C9.15086 13.2133 9.06464 13.2788 8.95114 13.3268C8.83983 13.3748 8.70995 13.3988 8.56152 13.3988ZM10.6623 12.8979V13.3727H10.3774C10.1744 13.3727 10.0162 13.3235 9.90265 13.2253C9.78915 13.1249 9.73241 12.9623 9.73241 12.7375V12.0106H9.50977V11.5457H9.73241V11.1004H10.2923V11.5457H10.659V12.0106H10.2923V12.744C10.2923 12.7986 10.3054 12.8379 10.3316 12.8619C10.3578 12.8859 10.4014 12.8979 10.4625 12.8979H10.6623ZM10.8628 12.4559C10.8628 12.2682 10.8977 12.1034 10.9676 11.9615C11.0396 11.8196 11.1367 11.7105 11.259 11.6341C11.3812 11.5577 11.5176 11.5195 11.6682 11.5195C11.797 11.5195 11.9094 11.5457 12.0055 11.5981C12.1037 11.6505 12.179 11.7192 12.2314 11.8043V11.5457H12.7913V13.3727H12.2314V13.114C12.1768 13.1991 12.1004 13.2679 12.0022 13.3202C11.9061 13.3727 11.7937 13.3988 11.665 13.3988C11.5165 13.3988 11.3812 13.3606 11.259 13.2842C11.1367 13.2057 11.0396 13.0954 10.9676 12.9536C10.8977 12.8095 10.8628 12.6436 10.8628 12.4559ZM12.2314 12.4592C12.2314 12.3195 12.1921 12.2092 12.1135 12.1285C12.0371 12.0477 11.9432 12.0073 11.8319 12.0073C11.7206 12.0073 11.6257 12.0477 11.5471 12.1285C11.4707 12.207 11.4325 12.3162 11.4325 12.4559C11.4325 12.5956 11.4707 12.7069 11.5471 12.7899C11.6257 12.8706 11.7206 12.911 11.8319 12.911C11.9432 12.911 12.0371 12.8706 12.1135 12.7899C12.1921 12.7091 12.2314 12.5989 12.2314 12.4592Z" fill="#FE622A"/>
<path d="M4.93161 8.02808C4.8334 8.02808 4.75263 7.9997 4.68933 7.94294C4.62821 7.88401 4.59766 7.81199 4.59766 7.72687C4.59766 7.63956 4.62821 7.56751 4.68933 7.51077C4.75263 7.45184 4.8334 7.42236 4.93161 7.42236C5.02766 7.42236 5.10623 7.45184 5.16735 7.51077C5.23066 7.56751 5.26231 7.63956 5.26231 7.72687C5.26231 7.81199 5.23066 7.88401 5.16735 7.94294C5.10623 7.9997 5.02766 8.02808 4.93161 8.02808ZM5.20992 8.21797V10.0449H4.65004V8.21797H5.20992ZM6.72886 8.19833C6.94277 8.19833 7.11301 8.26818 7.23961 8.40788C7.3684 8.54538 7.43278 8.73528 7.43278 8.97757V10.0449H6.8762V9.05288C6.8762 8.93064 6.84453 8.83569 6.78125 8.76802C6.71794 8.70036 6.63282 8.66652 6.52586 8.66652C6.41891 8.66652 6.33377 8.70036 6.27048 8.76802C6.20717 8.83569 6.17553 8.93064 6.17553 9.05288V10.0449H5.61566V8.21797H6.17553V8.46026C6.23229 8.3795 6.30867 8.31621 6.40472 8.27037C6.50077 8.22235 6.60879 8.19833 6.72886 8.19833Z" fill="#FE622A"/>
<path d="M5.72607 16.5225L5.37573 16.015L5.08106 16.5225H4.47536L5.0778 15.5894L4.45898 14.6956H5.08761L5.43795 15.1998L5.73262 14.6956H6.33834L5.72607 15.6156L6.3547 16.5225H5.72607Z" fill="#FE622A"/>
<path fill-rule="evenodd" clip-rule="evenodd" d="M1.48185 4.10209H12.5984V2.61987H1.48185V4.10209ZM1.48854 20.0324L17.4154 20.0324L17.7924 20.0322L17.7924 8.35967L16.3039 8.35956L16.3038 18.5438H1.48854V4.10508L0 5.49439L7.8727e-08 20.0324H1.48854Z" fill="white"/>
<path fill-rule="evenodd" clip-rule="evenodd" d="M17.7894 0.778048V0.0368652H16.3072V2.42494L17.7894 0.778048ZM16.1279 2.62421H13.8984V4.1196H16.3072V6.89205H17.7894V4.1196H19.7853V2.62421H17.7894V2.63079H16.122L16.1279 2.62421Z" fill="#FE622A"/>
</g>
<defs>
<clipPath id="clip0_152_413">
<rect width="19.8292" height="20.0358" fill="white"/>
</clipPath>
</defs>
</svg>
